<svg width="448" height="372" viewBox="0 0 448 372" fill="none" xmlns="http://www.w3.org/2000/svg">
<g clip-path="url(#clip0)">
<path opacity="0.1" d="M447.159 122.378H405.824V172.439H444.138C444.237 172.956 444.331 173.472 444.444 173.984H405.824V214.348L406.017 214.285C407.108 213.901 408.192 213.494 409.268 213.063L409.96 212.78C411.063 212.328 412.147 211.844 413.211 211.329C413.593 211.154 413.97 210.97 414.344 210.781C420.287 207.857 425.767 204.073 430.605 199.552C430.745 199.43 430.875 199.305 431.001 199.183C431.662 198.546 432.309 197.903 432.939 197.243L433.631 196.506C434.373 195.702 435.088 194.871 435.785 194.031L436.09 193.663C438.892 190.231 441.245 186.458 443.095 182.434C443.153 182.312 443.203 182.186 443.257 182.065C443.819 180.799 444.327 179.514 444.767 178.207C444.956 177.654 445.136 177.102 445.293 176.549C445.347 176.383 445.397 176.221 445.442 176.06C447.735 168.042 448 159.71 448 151.422C448 150.457 448 149.486 448 148.525C448 145.179 447.951 141.787 447.888 138.441C447.888 137.57 447.847 136.703 447.825 135.827C447.771 133.602 447.69 131.38 447.582 129.161C447.555 128.541 447.528 127.926 447.487 127.315C447.487 126.96 447.451 126.605 447.429 126.25C447.339 124.934 447.258 123.659 447.159 122.378Z" fill="#6C63FF"/>
<path opacity="0.1" d="M405.824 66.649H428.497C424.78 61.4891 420.748 56.5628 416.425 51.898C413.053 48.2237 409.515 44.6393 405.81 41.1896L405.824 66.649Z" fill="#123D81"/>
<path opacity="0.1" d="M405.824 68.1942V120.833H447.029C447.029 120.681 447.002 120.523 446.988 120.384C446.952 119.971 446.916 119.558 446.876 119.14C446.836 118.722 446.782 118.17 446.728 117.68C446.674 117.19 446.62 116.625 446.557 116.103C446.494 115.582 446.44 115.048 446.372 114.522C446.305 113.997 446.242 113.471 446.17 112.95C446.098 112.429 446.031 111.899 445.95 111.378C445.887 110.929 445.828 110.516 445.761 110.08C445.667 109.469 445.568 108.854 445.464 108.247C445.453 108.157 445.436 108.067 445.415 107.978C444.671 103.515 443.659 99.1003 442.385 94.7585C441.037 90.1586 439.328 85.6723 437.273 81.3416C435.056 76.7607 432.484 72.3602 429.58 68.1807L405.824 68.1942Z" fill="#123D81"/>
<path opacity="0.1" d="M307.66 122.378V172.439H395.951V122.378H307.66ZM307.66 173.985V207.884C317.938 204.6 329.69 205.926 340.345 208.621C348.595 210.714 356.634 213.562 364.871 215.61C368.549 216.549 372.284 217.254 376.052 217.721L376.978 217.82C377.428 217.865 377.877 217.91 378.327 217.946L379.676 218.04H379.815H380.417C380.486 218.044 380.555 218.044 380.624 218.04L381.353 218.067H381.375C381.721 218.067 382.072 218.067 382.423 218.094H382.872C383.218 218.094 383.569 218.094 383.92 218.094H384.688H385.309C385.574 218.094 385.835 218.094 386.096 218.067C386.518 218.067 386.941 218.031 387.368 217.999L388.155 217.95L389.126 217.874C389.814 217.82 390.475 217.748 391.172 217.667C391.441 217.636 391.716 217.604 391.985 217.564L392.386 217.514C393.064 217.424 393.734 217.317 394.413 217.204C394.912 217.128 395.411 217.034 395.915 216.944V173.985H307.66ZM373.327 66.631V68.1762H307.66V120.833H395.951V68.1942H391.522V66.649H395.951V32.6283C378.776 18.8071 358.702 7.98188 336.344 2.98254C326.927 0.900122 317.304 -0.102036 307.66 -0.00449605V66.649L373.327 66.631ZM171.461 66.3346L171.771 66.631H297.782V0.458157C275.348 2.32224 253.471 9.85046 235.833 22.3241C227.358 28.3117 219.747 35.4087 210.238 40.0038C205.248 42.4774 199.797 43.8848 194.233 44.1362L171.461 66.3346ZM170.593 39.1863V54.1663L182.768 42.2946C178.241 40.7314 174.671 39.6624 170.575 39.2042L170.593 39.1863ZM170.188 227.643H170.593V260.478C175.188 260.137 179.765 259.667 184.324 259.068C204.709 256.443 224.685 251.273 243.782 243.679V243.679C245.832 242.858 247.867 242.011 249.887 241.137C251.233 240.553 252.572 239.954 253.902 239.34C255.899 238.424 257.88 237.482 259.846 236.515C268.547 232.242 276.94 227.37 284.965 221.934C285.464 221.597 285.967 221.256 286.462 220.91C287.457 220.221 288.444 219.527 289.425 218.826C289.915 218.471 290.405 218.116 290.89 217.757L291.888 216.993C292.895 216.243 293.898 215.489 294.914 214.747C295.854 214.074 296.802 213.4 297.764 212.771V173.962H196.539C196.611 173.733 196.678 173.513 196.755 173.27C196.674 173.504 196.602 173.72 196.534 173.962H170.575V227.634L170.188 227.643ZM170.593 68.1852V120.833H297.782V68.1942L170.593 68.1852ZM170.593 122.369V172.439H297.782V122.378L170.593 122.369ZM145.164 40.7269L160.702 55.8777V39.1189C155.496 39.4423 150.316 39.9783 145.164 40.7269ZM36.9699 122.378V172.439H160.702V122.378H36.9699ZM66.8767 246.015C85.631 253.148 105.24 257.796 125.202 259.84H125.288C129.061 260.239 132.845 260.547 136.64 260.766H136.779C144.733 261.215 152.717 261.318 160.689 261.022V173.985H36.9699L37.4195 231.623L66.8767 246.015ZM2.69754 172.439H27.1014V122.378H17.4486C16.4461 124.139 15.4749 125.909 14.5533 127.706C14.0587 128.661 13.5777 129.627 13.1101 130.603C6.75735 143.777 2.72002 158.259 2.69754 172.439ZM2.69754 173.985C2.89536 184.154 5.18828 194.135 10.2192 203.356C14.4004 211.015 20.2091 217.73 27.0834 223.569V173.985H2.69754ZM18.3343 120.833H27.0834V107.807C23.93 111.982 21.015 116.331 18.3523 120.833H18.3343ZM73.153 66.649H157.784L158.09 66.3525L157.64 65.9034L133.843 42.7123C126.78 44.1853 119.805 46.0523 112.951 48.3046C112.303 48.5157 111.656 48.7537 111.013 48.9559C97.7787 53.4407 85.0814 59.3745 73.153 66.649V66.649ZM36.9699 96.0117V120.833H145.483H145.506H160.715V69.627L158.98 68.2166H70.6623C58.2804 75.9935 46.9559 85.3359 36.9699 96.0117V96.0117Z" fill="#0F5AD1"/>
<path opacity="0.1" d="M405.824 94.7451V120.833H447.029C447.029 120.681 447.002 120.523 446.988 120.384C446.952 119.971 446.916 119.558 446.876 119.14C446.836 118.722 446.782 118.17 446.728 117.68C446.674 117.19 446.62 116.625 446.557 116.103C446.494 115.582 446.44 115.048 446.372 114.522C446.305 113.997 446.242 113.471 446.17 112.95C446.098 112.429 446.031 111.899 445.95 111.378C445.887 110.929 445.828 110.516 445.761 110.08C445.667 109.469 445.568 108.854 445.464 108.247C445.453 108.157 445.436 108.067 445.415 107.978C444.671 103.515 443.659 99.1003 442.385 94.7585L405.824 94.7451Z" fill="#123D81"/>
<path opacity="0.1" d="M447.159 122.378H405.824V172.439H444.138C444.237 172.956 444.331 173.472 444.444 173.984H405.824V214.348L406.017 214.285C407.108 213.901 408.192 213.494 409.268 213.063L409.96 212.78C411.063 212.328 412.147 211.844 413.211 211.329C413.593 211.154 413.97 210.97 414.344 210.781C420.287 207.857 425.767 204.073 430.605 199.552C430.745 199.43 430.875 199.305 431.001 199.183C431.662 198.546 432.309 197.903 432.939 197.243L433.631 196.506C434.373 195.702 435.088 194.871 435.785 194.031L436.09 193.663C438.892 190.231 441.245 186.458 443.095 182.434C443.153 182.312 443.203 182.186 443.257 182.065C443.819 180.799 444.327 179.514 444.767 178.207C444.956 177.654 445.136 177.102 445.293 176.549C445.347 176.383 445.397 176.221 445.442 176.06C447.735 168.042 448 159.71 448 151.422C448 150.457 448 149.486 448 148.525C448 145.179 447.951 141.787 447.888 138.441C447.888 137.57 447.847 136.703 447.825 135.827C447.771 133.602 447.69 131.38 447.582 129.161C447.555 128.541 447.528 127.926 447.487 127.315C447.487 126.96 447.451 126.605 447.429 126.25C447.339 124.934 447.258 123.659 447.159 122.378Z" fill="#518CE9"/>
<path opacity="0.1" d="M364.871 75.7314V120.833H395.951V75.7314H391.522V60.4593H373.327V75.7314H364.871Z" fill="#123D81"/>
<path opacity="0.1" d="M395.951 122.378H364.871V172.435H395.951V122.378Z" fill="#123D81"/>
<path opacity="0.1" d="M395.951 173.984H364.875V215.61C368.553 216.547 372.286 217.252 376.052 217.721L376.978 217.82C377.428 217.869 377.877 217.91 378.327 217.946L379.676 218.04C379.721 218.04 379.77 218.04 379.815 218.04C380.013 218.04 380.215 218.04 380.417 218.067H380.624C380.867 218.067 381.11 218.067 381.357 218.094C381.703 218.094 382.054 218.094 382.405 218.121H382.854C383.205 218.121 383.551 218.121 383.902 218.121H384.671H385.291L386.082 218.094C386.5 218.094 386.927 218.058 387.35 218.026L388.132 217.977L389.108 217.901C389.791 217.842 390.457 217.775 391.149 217.694L391.963 217.591L392.363 217.541C393.042 217.447 393.712 217.348 394.391 217.231C394.894 217.155 395.389 217.061 395.892 216.971L395.951 173.984Z" fill="#123D81"/>
<path opacity="0.1" d="M196.206 70.4041H170.575V120.829H196.206V70.4041Z" fill="#123D81"/>
<path opacity="0.1" d="M170.575 122.378V172.439H297.782V150.847H230.025V163.586H196.202V122.378H170.575Z" fill="#6C63FF"/>
<path opacity="0.1" d="M170.17 227.661H170.575V260.501C175.17 260.153 179.747 259.683 184.306 259.09C204.698 256.455 224.679 251.278 243.782 243.679C249.249 241.487 254.604 239.1 259.846 236.519C268.547 232.245 276.94 227.372 284.965 221.934C286.97 220.575 288.943 219.184 290.886 217.761C292.234 216.769 293.583 215.758 294.932 214.774C295.872 214.101 296.82 213.427 297.782 212.793V173.984H196.543C196.615 173.755 196.683 173.535 196.755 173.297C196.678 173.526 196.602 173.746 196.534 173.984H170.575V227.639L170.17 227.661Z" fill="#6C63FF"/>
<path opacity="0.1" d="M103.734 66.649H120.432V62.0269H112.951V48.3046C112.303 48.5157 111.656 48.7537 111.013 48.9559V62.0269H103.734V66.649Z" fill="#6C63FF"/>
<path opacity="0.1" d="M63.4958 120.833H145.483H145.456H145.497H160.702V70.4041H156.395V107.686H136.703V85.6223H120.432V68.1942H103.734V85.6223H87.468V107.681H63.4958V120.833Z" fill="#123D81"/>
<path opacity="0.1" d="M63.4958 122.378V172.439H160.702V122.378H63.4958ZM66.8902 246.015C85.6445 253.148 105.253 257.796 125.216 259.84H125.301C129.075 260.239 132.859 260.547 136.653 260.766H136.793C144.746 261.215 152.731 261.318 160.702 261.022V173.985H63.4958V191.732H36.9699L37.1093 231.353" fill="#123D81"/>
<path opacity="0.1" d="M25.3884 173.984H2.71553C2.91335 184.154 5.21076 194.135 10.2372 203.356C14.4184 211.019 20.2316 217.73 27.1014 223.569V191.732H25.3884V173.984Z" fill="#123D81"/>
<path opacity="0.1" d="M2.69754 172.439H25.3884V130.603H13.1101C6.75735 143.777 2.72002 158.259 2.69754 172.439Z" fill="#123D81"/>
<path opacity="0.1" d="M184.306 84.423H170.575V100.234H184.306V84.423Z" fill="#6C63FF"/>
<path opacity="0.1" d="M184.306 117.195H170.575V120.833H184.306V117.195Z" fill="#6C63FF"/>
<path opacity="0.1" d="M184.306 122.378H170.575V133.002H184.306V122.378Z" fill="#6C63FF"/>
<path opacity="0.1" d="M184.306 149.962H170.575V165.774H184.306V149.962Z" fill="#6C63FF"/>
<path opacity="0.1" d="M184.306 182.734H170.575V198.546H184.306V182.734Z" fill="#6C63FF"/>
<path opacity="0.1" d="M170.575 227.639H170.17H170.575V231.309H184.306V215.497H170.575V227.639Z" fill="#6C63FF"/>
<path opacity="0.1" d="M170.575 248.27V260.483C175.17 260.135 179.747 259.665 184.306 259.072V248.292L170.575 248.27Z" fill="#6C63FF"/>
<path opacity="0.1" d="M297.782 171.276H238.94V172.435H297.782V171.276Z" fill="#6C63FF"/>
<path opacity="0.1" d="M297.782 173.984H238.94V178.436H297.782V173.984Z" fill="#6C63FF"/>
<path opacity="0.1" d="M297.782 193.025H238.94V200.185H297.782V193.025Z" fill="#6C63FF"/>
<path opacity="0.1" d="M238.94 214.774V221.934H284.969C286.968 220.578 288.942 219.185 290.89 217.757C292.239 216.769 293.588 215.758 294.937 214.779L238.94 214.774Z" fill="#6C63FF"/>
<path opacity="0.1" d="M238.94 236.519V243.679H243.782C249.246 241.493 254.599 239.106 259.841 236.519H238.94Z" fill="#6C63FF"/>
<path opacity="0.1" d="M125.211 137.525H136.793V127.234H125.211V137.525Z" fill="#6C63FF"/>
<path opacity="0.1" d="M376.02 89.5705H387.602V79.2799H376.02V89.5705Z" fill="#518CE9"/>
<path opacity="0.1" d="M376.02 113.476H387.602V103.185H376.02V113.476Z" fill="#518CE9"/>
<path opacity="0.1" d="M376.02 137.377H387.602V127.086H376.02V137.377Z" fill="#518CE9"/>
<path opacity="0.1" d="M376.02 161.282H387.602V150.991H376.02V161.282Z" fill="#518CE9"/>
<path opacity="0.1" d="M376.02 185.191H387.602V174.901H376.02V185.191Z" fill="#518CE9"/>
<path opacity="0.1" d="M376.02 209.092H387.602V198.802H376.02V209.092Z" fill="#518CE9"/>
<path opacity="0.1" d="M80.9894 137.525H92.5709V127.234H80.9894V137.525Z" fill="#518CE9"/>
<path opacity="0.1" d="M125.211 162.903H136.793V152.613H125.211V162.903Z" fill="#6C63FF"/>
<path opacity="0.1" d="M80.9894 162.903H92.5709V152.613H80.9894V162.903Z" fill="#518CE9"/>
<path opacity="0.1" d="M125.211 188.286H136.793V177.996H125.211V188.286Z" fill="#6C63FF"/>
<path opacity="0.1" d="M80.9894 188.286H92.5709V177.996H80.9894V188.286Z" fill="#6C63FF"/>
<path opacity="0.1" d="M125.211 213.669H136.793V203.379H125.211V213.669Z" fill="#6C63FF"/>
<path opacity="0.1" d="M80.9894 213.669H92.5709V203.379H80.9894V213.669Z" fill="#6C63FF"/>
<path opacity="0.1" d="M125.211 239.057H136.793V228.766H125.211V239.057Z" fill="#6C63FF"/>
<path opacity="0.1" d="M80.9894 239.057H92.5709V228.766H80.9894V239.057Z" fill="#6C63FF"/>
<path opacity="0.1" d="M136.788 260.784V254.149H125.211V259.84L136.788 260.784Z" fill="#6C63FF"/>
<path opacity="0.1" d="M405.824 107.96V113.849H445.464V107.96H405.824ZM441.517 108.333H444.749V113.48H441.499L441.517 108.333ZM437.569 108.333H440.82V113.48H437.556L437.569 108.333ZM433.631 108.333H436.882V113.48H433.631V108.333ZM429.684 108.333H432.934V113.48H429.684V108.333ZM425.741 108.333H429.014V113.48H425.763L425.741 108.333ZM421.793 108.333H425.044V113.48H421.793V108.333ZM417.846 108.333H421.096V113.48H417.846V108.333ZM413.903 108.333H417.154V113.48H413.903V108.333ZM409.96 108.333H413.211V113.48H409.96V108.333ZM406.017 108.333H409.268V113.48H406.017V108.333Z" fill="#6C63FF"/>
<path opacity="0.1" d="M405.824 125.1V130.989H445.464V125.1H405.824ZM441.517 125.473H444.749V130.616H441.499L441.517 125.473ZM437.569 125.473H440.82V130.616H437.556L437.569 125.473ZM433.631 125.473H436.882V130.616H433.631V125.473ZM429.684 125.473H432.934V130.616H429.684V125.473ZM425.741 125.473H429.014V130.616H425.763L425.741 125.473ZM421.793 125.473H425.044V130.616H421.793V125.473ZM417.846 125.473H421.096V130.616H417.846V125.473ZM413.903 125.473H417.154V130.616H413.903V125.473ZM409.96 125.473H413.211V130.616H409.96V125.473ZM406.017 125.473H409.268V130.616H406.017V125.473Z" fill="#6C63FF"/>
<path opacity="0.1" d="M405.824 142.237V148.121H445.464V142.237H405.824ZM441.517 142.605H444.749V147.753H441.499L441.517 142.605ZM437.569 142.605H440.82V147.753H437.556L437.569 142.605ZM433.631 142.605H436.882V147.753H433.631V142.605ZM429.684 142.605H432.934V147.753H429.684V142.605ZM425.741 142.605H429.014V147.753H425.763L425.741 142.605ZM421.793 142.605H425.044V147.753H421.793V142.605ZM417.846 142.605H421.096V147.753H417.846V142.605ZM413.903 142.605H417.154V147.753H413.903V142.605ZM409.96 142.605H413.211V147.753H409.96V142.605ZM406.017 142.605H409.268V147.753H406.017V142.605Z" fill="#6C63FF"/>
<path opacity="0.1" d="M405.824 159.373V165.257H445.464V159.373H405.824ZM441.517 159.741H444.749V164.889H441.499L441.517 159.741ZM437.569 159.741H440.82V164.889H437.556L437.569 159.741ZM433.631 159.741H436.882V164.889H433.631V159.741ZM429.684 159.741H432.934V164.889H429.684V159.741ZM425.741 159.741H429.014V164.889H425.763L425.741 159.741ZM421.793 159.741H425.044V164.889H421.793V159.741ZM417.846 159.741H421.096V164.889H417.846V159.741ZM413.903 159.741H417.154V164.889H413.903V159.741ZM409.96 159.741H413.211V164.889H409.96V159.741ZM406.017 159.741H409.268V164.889H406.017V159.741Z" fill="#6C63FF"/>
<path opacity="0.1" d="M405.824 176.509V182.407H443.095C443.149 182.285 443.203 182.16 443.252 182.038H441.517V176.882H444.749V178.162C444.938 177.614 445.118 177.066 445.275 176.509H405.824ZM437.569 176.882H440.82V182.025H437.556L437.569 176.882ZM433.631 176.882H436.882V182.025H433.631V176.882ZM429.684 176.882H432.934V182.025H429.684V176.882ZM425.741 176.882H429.014V182.025H425.763L425.741 176.882ZM421.793 176.882H425.044V182.025H421.793V176.882ZM417.846 176.882H421.096V182.025H417.846V176.882ZM413.903 176.882H417.154V182.025H413.903V176.882ZM409.96 176.882H413.211V182.025H409.96V176.882ZM406.017 176.882H409.268V182.025H406.017V176.882Z" fill="#6C63FF"/>
<path opacity="0.1" d="M405.824 193.636V199.52H430.601C430.745 199.399 430.871 199.269 431.001 199.152H429.684V194.018H432.934V197.229L433.631 196.488V194.018H435.785C435.888 193.892 435.987 193.766 436.09 193.649L405.824 193.636ZM425.741 194.004H429.014V199.152H425.763L425.741 194.004ZM421.793 194.004H425.044V199.152H421.793V194.004ZM417.846 194.004H421.096V199.152H417.846V194.004ZM413.903 194.004H417.154V199.152H413.903V194.004ZM409.96 194.004H413.211V199.152H409.96V194.004ZM406.017 194.004H409.268V199.152H406.017V194.004Z" fill="#6C63FF"/>
<path opacity="0.1" d="M405.824 210.786V214.348C405.89 214.33 405.954 214.307 406.017 214.28V211.136H409.268V213.049L409.96 212.766V211.154H413.211V211.334C413.593 211.158 413.97 210.974 414.344 210.79L405.824 210.786Z" fill="#6C63FF"/>
<path opacity="0.1" d="M145.47 120.842H145.492H145.47ZM170.17 227.661H170.575H170.17ZM196.534 173.984C196.606 173.755 196.674 173.535 196.75 173.293C196.674 173.526 196.602 173.755 196.534 173.984ZM145.47 120.842H145.492H145.47ZM373.327 66.649V68.1942H391.522V66.649H373.327ZM170.17 227.661H170.575H170.17ZM196.534 173.984C196.606 173.755 196.674 173.535 196.75 173.293C196.674 173.526 196.602 173.755 196.534 173.984ZM145.47 120.842H145.492H145.47ZM170.17 227.661H170.575H170.17ZM196.534 173.984C196.606 173.755 196.674 173.535 196.75 173.293C196.674 173.526 196.602 173.755 196.534 173.984Z" fill="#6C63FF"/>
<path opacity="0.1" d="M405.959 370.311C414.545 370.311 421.506 369.541 421.506 368.591C421.506 367.641 414.545 366.87 405.959 366.87C397.372 366.87 390.412 367.641 390.412 368.591C390.412 369.541 397.372 370.311 405.959 370.311Z" fill="#6C63FF"/>
<path d="M300.471 240.422L292.702 239.996L292.176 217.703L292.055 212.394L300.251 210.884L300.305 217.73L300.471 240.422Z" fill="#D48A9B"/>
<path d="M294.424 236.541L254.5 261.341L253.637 268.887L257.953 269.102V263.712L284.065 249.051L252.558 288.076V294.113H257.737L257.306 287.429L293.777 246.033L298.308 246.464L336.726 290.016L337.589 297.351L342.769 297.567L341.905 290.016L311.477 252.07L331.763 266.084L332.194 272.121L336.294 272.336L335.863 265.006L297.229 235.248L294.424 236.541Z" fill="#D48A9B"/>
<path d="M244.268 194.126C248.038 189.439 251.198 184.294 253.673 178.813C256.42 172.74 259.432 165.729 259.662 163.653C260.111 159.773 271.099 152.011 283.184 151.58C291.066 151.297 303.344 145.152 310.942 140.907C318.089 136.847 326.037 134.394 334.231 133.72C343.119 133.051 351.477 134.794 347.269 145.098L290.755 213.472C290.755 213.472 242.559 221.957 239.587 208.315C239.421 207.627 239.191 206.957 238.899 206.312C238.337 205.023 238.189 201.658 244.268 194.126Z" fill="#0F5AD1"/>
<path opacity="0.2" d="M248.512 195.482C252.307 190.745 255.498 185.554 258.012 180.03C260.574 174.353 263.294 167.988 263.51 166.061C263.924 162.355 274.453 154.939 286.017 154.526C293.556 154.257 305.304 148.39 312.57 144.334C319.414 140.462 327.02 138.126 334.86 137.489C343.362 136.851 351.36 138.517 347.35 148.359L302.521 213.939C302.521 213.939 247.221 221.777 244.295 208.809C244.121 208.121 243.891 207.448 243.607 206.797C243.094 205.512 243.022 202.364 248.512 195.482Z" fill="#76A5F0"/>
<path opacity="0.1" d="M300.305 217.73C297.706 217.73 294.968 217.73 292.176 217.703L292.055 212.394L300.251 210.889L300.305 217.73Z" fill="black"/>
<g opacity="0.1">
<path opacity="0.1" d="M331.763 264.79L311.477 250.776L313.801 253.673L331.763 266.084L332.194 272.121L336.294 272.336L336.218 271.038L332.194 270.827L331.763 264.79Z" fill="black"/>
<path opacity="0.1" d="M257.953 262.419V263.712L282.155 250.125L284.065 247.757L257.953 262.419Z" fill="black"/>
<path opacity="0.1" d="M252.558 292.819V294.113H257.737L257.652 292.819H252.558Z" fill="black"/>
<path opacity="0.1" d="M257.953 267.809L253.781 267.602L253.637 268.887L257.953 269.102V267.809Z" fill="black"/>
<path opacity="0.1" d="M337.589 296.058L336.726 288.722L298.308 245.17L293.777 244.739L257.306 286.135L257.382 287.343L293.777 246.033L298.308 246.464L336.726 290.016L337.589 297.351L342.769 297.567L342.62 296.264L337.589 296.058Z" fill="black"/>
</g>
<path opacity="0.1" d="M295.719 175.247C295.719 175.247 305.826 182.631 301.402 182.717C296.978 182.802 295.719 175.247 295.719 175.247Z" fill="black"/>
<path d="M253.313 215.646C253.313 215.646 270.038 214.352 276.296 202.278C276.296 202.278 289.029 177.048 299.392 174.245C309.755 171.442 328.957 165.19 336.942 155.487C344.927 145.785 348.276 138.347 348.276 138.347C348.276 138.347 350.335 146.198 343.848 155.456C337.36 164.713 335 178.97 330.468 194.085C325.936 209.2 324.209 215.197 316.009 216.095C309.827 216.746 277.142 216.418 261.514 216.095C256.402 215.956 253.313 215.646 253.313 215.646Z" fill="#6C63FF"/>
<path opacity="0.2" d="M253.313 215.646C253.313 215.646 270.038 214.352 276.296 202.278C276.296 202.278 289.029 177.048 299.392 174.245C309.755 171.442 328.957 165.19 336.942 155.487C344.927 145.785 348.276 138.347 348.276 138.347C348.276 138.347 350.335 146.198 343.848 155.456C337.36 164.713 335 178.97 330.468 194.085C325.936 209.2 324.209 215.197 316.009 216.095C309.827 216.746 277.142 216.418 261.514 216.095C256.402 215.956 253.313 215.646 253.313 215.646Z" fill="#76A5F0"/>
<path d="M257.522 215.646C257.522 215.646 273.509 214.393 279.489 202.7C279.489 202.7 291.664 178.274 301.564 175.561C311.464 172.848 329.825 166.789 337.459 157.396C345.093 148.004 348.29 140.799 348.29 140.799C348.29 140.799 350.245 148.435 344.059 157.396C337.873 166.357 335.602 180.152 331.268 194.768C326.934 209.384 325.288 215.228 317.448 216.063C311.54 216.692 280.298 216.373 265.358 216.063C260.475 215.969 257.522 215.646 257.522 215.646Z" fill="#082F6C"/>
<path opacity="0.1" d="M244.573 209.357C244.573 209.357 253.313 212.699 258.277 210.866C263.24 209.034 275.541 203.644 275.541 203.644C275.541 203.644 254.824 204.955 244.573 209.357Z" fill="black"/>
<path d="M303.011 366.277C303.011 366.277 277.888 364.93 271.765 361.337C265.641 357.743 256.973 357.743 256.928 357.743L156.894 335.958L115.307 326.076L107.888 325.101L132.391 297.091L133.138 296.767L169.258 281.158C169.258 281.158 185.443 282.057 188.64 292.594C188.858 293.337 189.009 294.098 189.089 294.867C189.425 298.154 188.513 301.446 186.536 304.093C185.259 305.836 183.69 308.311 183.195 310.49C182.916 311.72 182.979 312.857 183.645 313.724C184.993 315.061 186.483 316.25 188.087 317.268C196.894 323.107 219.158 332.728 258.052 317.991C258.052 317.991 274.687 301.596 287.276 308.558C299.864 315.52 303.011 366.277 303.011 366.277Z" fill="#518CE9"/>
<path opacity="0.1" d="M183.213 310.49C182.934 311.72 182.997 312.857 183.663 313.724C185.011 315.061 186.501 316.25 188.105 317.268L112.384 322.932L133.138 296.767L169.258 281.158C169.258 281.158 185.443 282.057 188.64 292.594C188.858 293.337 189.009 294.098 189.089 294.867C189.425 298.154 188.513 301.446 186.536 304.093C185.277 305.836 183.708 308.311 183.213 310.49Z" fill="#0F5AD1"/>
<path d="M109.237 207.493L171.281 208.841V283.04L112.384 322.932L98.2223 309.906L101.145 266.785L98.2223 226.583L109.237 207.493Z" fill="#A36468"/>
<path d="M73.9443 195.365L146.382 173.064C147.684 172.666 149.049 172.514 150.406 172.615L323.454 185.232C338.255 186.247 352.501 191.267 364.664 199.754C375.863 207.646 386.954 219.76 392.089 238.105C395.803 251.641 395.545 265.958 391.347 279.353L376.061 328.762C376.061 328.762 387.525 221.409 273.104 216.019L73.9443 195.365Z" fill="#D9D6DF"/>
<path d="M112.384 205.921V325.101C112.384 325.101 92.5349 322.312 89.0056 318.44C86.1103 315.264 69.336 306.312 62.0571 297.091C60.4611 295.069 59.3191 293.048 58.883 291.04C56.4462 279.954 46.5192 253.758 46.5192 253.758L49.2168 228.155L60.4566 211.536L82.2618 201.654H99.1214L112.384 205.921Z" fill="#B8797D"/>
<path d="M80.913 207.493C80.913 207.493 48.6503 227.706 55.7089 260.231C56.2844 262.881 56.7834 265.545 57.1116 268.24C58.4019 278.76 66.1439 308.989 112.384 322.932V326.076L92.7687 320.61L79.4518 313.275L69.2866 304.165L56.8599 289.019L51.0916 276.667L48.9785 260.397L47.7601 241.824L50.7319 225.891L57.741 215.524L66.2833 208.89L80.913 207.493Z" fill="#123D81"/>
<path opacity="0.1" d="M112.384 205.921V224.881C98.3122 226.408 54.7423 235.212 62.4797 285.52L62.0526 297.073C60.4566 295.051 59.3146 293.03 58.8785 291.022C56.4417 279.937 46.5147 253.74 46.5147 253.74L49.2123 228.137L60.4521 211.518L82.2573 201.636H99.117L112.384 205.921Z" fill="black"/>
<path opacity="0.1" d="M186.554 304.093C185.277 305.836 183.708 308.311 183.213 310.49C181.253 308.244 180.83 305.661 183.663 303.617C187.21 301.039 188.392 296.565 188.658 292.594C188.876 293.337 189.027 294.098 189.107 294.867C189.443 298.154 188.531 301.446 186.554 304.093V304.093Z" fill="white"/>
<path d="M368.202 316.194L359.66 345.166L340.327 364.032L316.049 368.973L278.284 362.235V228.155C278.284 228.155 284.803 223.888 285.477 223.888C286.152 223.888 304.36 226.808 304.36 226.808L345.588 256.35L347.296 257.576L365.729 284.976L368.202 316.194Z" fill="#B8797D"/>
<path d="M278.284 222.541V362.235L281.925 362.886V222.541H278.284Z" fill="#A36468"/>
<path opacity="0.1" d="M346.397 265.662C319.421 243.517 289.434 240.261 278.284 239.856V228.178C278.284 228.178 284.803 223.911 285.477 223.911C286.152 223.911 304.36 226.83 304.36 226.83L345.588 256.373L346.397 265.662Z" fill="black"/>
<path d="M272.587 213.557L103.617 195.141L84.6266 194.135C78.7085 193.793 72.7901 194.802 67.3208 197.087C61.8514 199.371 56.9747 202.87 53.0608 207.318C43.1698 218.682 35.6931 238.729 46.6137 273.149C46.6137 273.149 58.0018 317.766 113.153 327.352L273.406 363.632C276.957 364.436 280.464 365.429 283.926 366.556C298.475 371.331 347.768 383.701 370.989 341.649C378.947 327.23 381.33 310.418 378.264 294.234C372.675 264.633 351.576 214.401 272.587 213.557ZM355.371 339.727C333.7 374.996 289.047 364.499 275.622 360.357C272.336 359.342 269.009 358.457 265.641 357.739L117.609 326.099C66.607 317.73 56.0731 278.773 56.0731 278.773C47.4634 253.17 51.2265 236.649 58.1861 226.192C65.474 215.246 78.1615 209.124 91.3075 209.788L108.806 210.687L259.94 230.859C262.998 231.268 266.077 231.538 269.161 231.641C336.371 233.918 357.281 270.841 362.596 296.287C365.716 311.159 363.342 326.763 355.371 339.727Z" fill="#042456"/>
<path d="M1.90177 288.619C7.43624 292.32 15.8391 290.56 15.8391 290.56C15.8391 290.56 28.5131 284.563 32.2582 284.563C36.0033 284.563 45.112 280.857 45.112 280.857L44.8018 278.36L43.8756 270.836C49.6439 275.328 56.0551 273.778 59.2112 273.45C62.6011 273.1 80.7152 262.342 82.4596 261.633C82.9316 261.444 83.4846 260.829 84.0466 260.034C85.2135 258.251 86.2387 256.379 87.1129 254.437V254.437C88.2458 253.44 89.0731 252.64 89.0146 252.465C88.9562 252.29 89.4642 250.978 90.1251 249.5C92.6968 249.051 94.9133 248.099 95.6191 247.524C96.1992 247.06 96.6635 246.468 96.9756 245.795C97.2877 245.122 97.4389 244.385 97.4175 243.643C97.4175 243.643 115.091 225.833 112.767 218.426C110.442 211.019 118.481 210.84 118.481 210.84C118.481 210.84 130.795 205.548 132.508 202.377C133.565 200.423 142.804 196.133 149.754 193.124L150.609 192.756C153.306 198.662 167.01 194.103 169.707 191.619C172.562 188.974 180.947 187.738 180.947 187.738C180.947 187.738 181.307 153.152 183.982 148.759C185.254 146.67 185.56 139.843 185.528 133.249C185.528 133.015 185.528 132.799 185.528 132.548C189.278 131.816 198.198 130.122 202.339 129.714C204.964 129.453 207.702 127.818 209.802 126.228L210.049 126.538C210.771 126.834 211.55 126.961 212.329 126.911C213.018 126.988 213.714 126.858 214.329 126.538C215.939 125.64 221.828 123.892 223.969 123.012C226.109 122.131 223.613 115.78 222.008 114.545C220.403 113.31 219.311 111.724 220.21 111.019C221.109 110.314 218.07 108.548 216.285 108.193C214.5 107.839 209.145 105.373 209.145 105.373C209.145 105.373 207.181 101.33 203.971 101.33C200.761 101.33 196.472 98.1543 196.472 98.1543C196.296 96.7439 192.902 96.5687 192.902 96.5687C192.902 96.5687 180.052 86.6868 177.908 87.9265C175.763 89.1663 169.878 85.9861 169.878 85.9861C169.878 85.9861 162.653 86.7946 160.954 85.465C160.938 85.0284 160.78 84.6089 160.504 84.2702C160.122 83.0754 158.256 81.4404 156.458 80.0794C156.595 79.2359 156.664 78.3827 156.665 77.5281C156.665 77.1597 156.665 76.7914 156.624 76.4276C156.624 76.3647 156.624 76.3063 156.624 76.2434L156.88 73.7595C156.898 72.9426 157.111 72.1418 157.501 71.4237C157.802 70.9746 158.247 70.5928 158.584 70.1481C158.663 70.0433 158.735 69.9338 158.8 69.8202L158.854 69.7259C158.904 69.6398 158.949 69.5514 158.989 69.4608L159.03 69.371C159.129 69.127 159.206 68.8744 159.259 68.6164V68.558C159.281 68.4412 159.299 68.3244 159.313 68.2031C159.311 68.1867 159.311 68.1701 159.313 68.1537C159.386 67.1276 159.249 66.0972 158.908 65.1263C158.373 63.4598 157.537 61.8518 157.447 60.1135C157.402 59.251 157.546 58.3706 157.357 57.5262C156.907 55.5992 154.943 54.3819 153.032 53.5734C150.393 52.4684 149.062 51.2602 146.944 49.6162C145.146 48.2237 142.17 48.9244 139.904 49.0682C134.725 49.4006 129.613 50.9592 124.739 52.5673C122.846 53.1961 120.918 53.9148 119.443 55.195C118.45 56.0386 117.768 57.1896 117.505 58.465V58.465C117.454 58.7615 117.435 59.0627 117.447 59.3633C117.447 59.3903 117.447 59.4172 117.447 59.4397C117.447 59.5565 117.447 59.6688 117.487 59.7811C117.485 59.8184 117.485 59.856 117.487 59.8934C117.51 60.0305 117.543 60.1657 117.586 60.2976C117.793 60.9489 118.175 61.5373 118.395 62.1842C118.445 62.3312 118.486 62.4812 118.517 62.6333C118.517 62.6333 118.517 62.6648 118.517 62.6783C118.548 62.822 118.571 62.9612 118.589 63.1274C118.787 64.731 118.193 66.4064 117.932 68.0414C117.896 68.2705 117.869 68.4906 117.851 68.7422C117.773 69.6882 117.857 70.6405 118.099 71.5585C118.097 71.5689 118.097 71.5795 118.099 71.5899C118.126 71.7022 118.166 71.8145 118.202 71.9223C118.214 71.971 118.229 72.019 118.247 72.0661C118.279 72.1604 118.319 72.2547 118.355 72.3446L118.431 72.5332C118.467 72.6141 118.508 72.6949 118.548 72.7758C118.589 72.8566 118.616 72.9105 118.652 72.9734C118.689 73.0473 118.729 73.1192 118.773 73.189C118.814 73.2609 118.859 73.3283 118.903 73.3956C118.948 73.463 118.989 73.5259 119.038 73.5888C119.088 73.6517 119.142 73.728 119.196 73.7954L119.335 73.9661L119.524 74.1637L119.672 74.312L119.893 74.5006C119.947 74.541 119.991 74.586 120.045 74.6219C120.099 74.6578 120.23 74.7522 120.324 74.8106L120.455 74.9004C120.598 74.9857 120.751 75.0621 120.904 75.134C121.929 75.5831 123.224 75.7673 123.84 76.6701C123.987 76.8809 124.089 77.1193 124.141 77.3709C124.141 77.4293 124.141 77.4921 124.141 77.5505V77.7077C124.141 78.2288 124.177 78.7453 124.231 79.2529C124.227 79.5322 124.244 79.8115 124.281 80.0884C124.311 80.2972 124.368 80.501 124.451 80.6948C125.171 84.2443 127.073 87.4457 129.847 89.7771C129.9 90.0511 129.963 90.3701 130.031 90.7294C128.46 91.907 126.706 92.8176 124.838 93.4245C120.553 94.6777 114.497 100.459 114.497 100.459C114.497 100.459 111.485 122.149 110.761 124.795C110.038 127.441 109.503 137.673 109.503 137.673C109.503 137.673 108.788 141.904 107.704 144.02C106.944 145.511 107.084 151.921 109.197 155.815C108.852 156.581 108.411 157.3 107.884 157.953C103.599 162.894 90.7455 162.715 86.4609 162.715C82.518 162.715 81.2996 165.104 81.1333 165.482C73.2879 167.727 47.886 174.95 44.8737 176.262C41.304 177.82 39.3393 193.223 39.3393 193.223C39.3393 193.223 31.8805 218.79 32.2357 222.141C32.5909 225.492 29.736 234.826 29.736 234.826C29.736 234.826 29.736 245.377 28.5266 246.091C28.5161 246.101 28.5039 246.108 28.4906 246.113C27.2407 246.644 27.4161 251.76 27.4161 251.76C27.4161 251.76 28.3378 252.025 29.7719 252.388C29.3898 254.971 27.9736 258.587 26.8811 261.156C26.3236 260.451 25.7796 260.159 25.4559 260.977C24.5567 263.223 11.1768 279.097 7.78243 279.097C6.16839 279.097 3.49782 280.417 1.73992 282.2C-0.184337 284.163 -1.00259 286.683 1.90177 288.619ZM63.2935 196.731C78.4672 198.141 94.7109 195.657 94.7109 195.657C94.7109 195.657 93.4611 200.082 92.3911 201.847C91.321 203.612 88.2818 213.665 88.2818 215.772C88.2818 217.878 83.4622 236.052 82.037 236.932C81.439 237.305 80.904 238.23 80.4814 239.178C80.1061 240.054 79.7906 240.955 79.5372 241.873C79.5582 242.331 79.5987 242.767 79.6586 243.18C78.5931 244.155 77.4646 245.179 76.462 246.087C76.462 246.087 70.0778 249.635 67.9198 251.575C65.7617 253.516 55.7808 255.897 55.7808 255.897C53.3061 256.96 50.9032 258.183 48.5873 259.557C45.4897 261.421 42.392 263.793 41.5827 266.133C41.9334 262.19 42.5044 257.442 42.8865 254.423L43.453 254.401C48.457 254.091 47.7106 249.321 47.4454 248.139C47.4094 247.969 47.3824 247.874 47.3824 247.874C50.9522 243.993 58.9819 215.084 57.9119 211.895C56.8419 208.706 58.8111 205.899 59.2292 205.899C59.6473 205.899 60.2318 202.373 59.3416 200.432C58.4514 198.492 63.2935 196.731 63.2935 196.731ZM185.987 118.924L185.038 119.158V118.956C185.038 118.956 185.385 118.956 185.987 118.924V118.924ZM134.122 92.3105C133.978 92.4902 133.834 92.6609 133.673 92.8271L133.488 93.0157C133.488 92.6878 133.488 92.3554 133.488 92.0365C133.704 92.1219 133.911 92.2252 134.122 92.3105ZM116.242 126.529L116.305 127.522C116.305 127.522 116.21 128.128 116.031 129.166L116.242 126.529ZM198.27 116.674L195.154 117.208C195.604 117.042 196.031 116.863 196.453 116.66C196.767 116.514 197.103 116.423 197.447 116.391C197.841 116.433 198.23 116.516 198.607 116.638C198.494 116.641 198.381 116.653 198.27 116.674V116.674Z" fill="url(#paint0_linear)"/>
<path d="M92.9351 244.007C92.9351 244.007 89.3383 251.423 89.5227 251.948C89.707 252.474 81.8122 258.767 81.8122 258.767L73.2295 252.645L74.1286 248.44C74.1286 248.44 83.7634 239.767 84.4693 238.765C85.1751 237.763 92.9351 244.007 92.9351 244.007Z" fill="#EFB7B9"/>
<path d="M43.9745 269.098C49.9316 274.874 56.9363 273.14 60.2677 272.777C63.5992 272.413 81.3716 261.749 83.08 261.049C83.5296 260.86 84.0916 260.249 84.6401 259.459C85.7863 257.688 86.792 255.83 87.6479 253.902C87.531 253.934 81.7043 255.6 80.2341 253.902C80.2341 253.902 77.7793 250.897 77.2533 250.897C76.7273 250.897 77.2129 245.624 77.2129 245.624C77.2129 245.624 70.9455 249.145 68.8459 251.072C66.7464 252.999 56.9318 255.358 56.9318 255.358C54.5046 256.413 52.1496 257.627 49.8822 258.991C45.2424 261.821 40.5666 265.814 43.9745 269.098Z" fill="#042456"/>
<path opacity="0.1" d="M43.9746 269.098C49.9316 274.874 56.9363 273.14 60.2677 272.777C63.5992 272.413 81.3716 261.749 83.08 261.049C83.5296 260.86 84.0916 260.249 84.6401 259.459C82.5675 258.223 69.0258 266.825 65.2357 268.402C61.4457 269.978 51.8559 269.098 46.4113 266.825C43.7138 265.689 46.4473 262.199 49.8732 258.991C45.2424 261.821 40.5666 265.814 43.9746 269.098Z" fill="#518CE9"/>
<path d="M44.6759 250.897C44.6759 250.897 42.1807 269.623 42.8146 272.076C43.4485 274.528 27.1553 263.676 27.1553 263.676C27.1553 263.676 32.8562 251.939 31.2017 249.244C29.5472 246.549 44.6759 250.897 44.6759 250.897Z" fill="#EFB7B9"/>
<path d="M29.0841 251.248C29.0841 251.248 39.2448 254.221 44.8468 253.871C49.7563 253.565 49.0235 248.831 48.7672 247.659C48.7312 247.492 48.7043 247.398 48.7043 247.398C52.2066 243.544 60.0924 214.842 59.0449 211.693C57.9973 208.544 59.8991 205.764 60.3487 205.764C60.7983 205.764 61.3333 202.26 60.4566 200.338C59.5799 198.415 64.3141 196.663 64.3141 196.663C79.2046 198.06 95.1471 195.594 95.1471 195.594C95.1471 195.594 93.9197 199.987 92.8676 201.739C91.8156 203.491 88.8213 213.463 88.8213 215.565C88.8213 217.667 84.0916 235.693 82.6889 236.568C82.1044 236.937 81.5784 237.853 81.1648 238.814C80.7953 239.691 80.4859 240.591 80.2386 241.509C80.7646 253.237 94.077 248.696 96.0058 247.111C96.2803 246.882 96.5304 246.627 96.7521 246.347C97.4286 245.461 97.7823 244.371 97.7547 243.257C97.7547 243.257 115.1 225.582 112.821 218.228C110.541 210.875 118.427 210.705 118.427 210.705C118.427 210.705 130.516 205.454 132.198 202.301C133.236 200.365 142.3 196.111 149.125 193.119C153.401 191.246 156.795 189.876 156.795 189.876L153.954 179.698L151.706 171.671L147.489 170.09L134.001 165.023L109.804 161.632L107.587 161.92L84.0781 164.961C84.0781 164.961 49.7563 174.771 46.2495 176.307C42.7427 177.843 40.8184 193.137 40.8184 193.137C40.8184 193.137 33.4631 218.516 33.8228 221.858C34.1824 225.2 31.368 234.435 31.368 234.435C31.368 234.435 31.368 244.905 30.1766 245.615C30.1649 245.618 30.1524 245.618 30.1406 245.615C28.9087 246.19 29.0841 251.248 29.0841 251.248Z" fill="#76A5F0"/>
<path opacity="0.1" d="M64.2961 196.641C79.1866 198.038 95.1291 195.572 95.1291 195.572C96.1811 192.262 110.905 183.161 110.905 183.161C98.8247 180.188 64.2961 196.641 64.2961 196.641Z" fill="black"/>
<path d="M80.2386 241.446C80.7646 253.175 94.077 248.633 96.0058 247.048C96.2803 246.82 96.5304 246.564 96.7521 246.284C92.0988 247.996 83.8488 249.321 81.1648 238.769C80.7961 239.64 80.4867 240.534 80.2386 241.446V241.446Z" fill="#444053"/>
<path d="M29.0841 251.248C29.0841 251.248 39.2448 254.221 44.8468 253.871C49.7563 253.565 49.0235 248.831 48.7672 247.659C43.6239 247.497 34.7669 247.016 30.1676 245.624C30.1558 245.627 30.1433 245.627 30.1316 245.624C28.9087 246.19 29.0841 251.248 29.0841 251.248Z" fill="#444053"/>
<path opacity="0.1" d="M80.2386 241.446C80.7646 253.175 94.077 248.633 96.0058 247.048C96.2803 246.82 96.5304 246.564 96.7521 246.284C92.0988 247.996 83.8488 249.321 81.1648 238.769C80.7961 239.64 80.4867 240.534 80.2386 241.446V241.446Z" fill="#0F5AD1"/>
<path opacity="0.1" d="M29.0841 251.248C29.0841 251.248 39.2448 254.221 44.8468 253.871C49.7563 253.565 49.0235 248.831 48.7672 247.659C43.6239 247.497 34.7669 247.016 30.1676 245.624C30.1558 245.627 30.1433 245.627 30.1316 245.624C28.9087 246.19 29.0841 251.248 29.0841 251.248Z" fill="#0F5AD1"/>
<path d="M4.02834 287.829C9.45941 291.503 17.6959 289.751 17.6959 289.751C17.6959 289.751 30.1316 283.804 33.8138 283.804C37.4959 283.804 46.4113 280.125 46.4113 280.125L46.1101 277.65L44.6624 265.774C44.6624 265.774 31.0173 265.424 30.4688 264.197C30.4688 264.197 28.0185 258.169 27.1418 260.397C26.2651 262.625 13.1281 278.364 9.7966 278.364C8.20954 278.364 5.58842 279.676 3.86649 281.446C1.99169 283.409 1.18692 285.906 4.02834 287.829Z" fill="#042456"/>
<path opacity="0.1" d="M51.1545 184.387C51.1545 184.387 62.5427 191.574 59.391 193.137C56.2394 194.701 51.1545 184.387 51.1545 184.387Z" fill="black"/>
<path opacity="0.1" d="M46.4113 198.213C46.4113 198.213 56.2214 207.52 52.5438 207.767C48.8661 208.014 46.4113 198.213 46.4113 198.213Z" fill="black"/>
<path opacity="0.1" d="M35.9134 227.774C35.9134 227.774 40.8949 237.13 39.0201 238.751C37.1453 240.373 35.9134 227.774 35.9134 227.774Z" fill="black"/>
<path opacity="0.1" d="M90.7501 237.247C88.9966 238.994 107.385 231.47 103.186 231.12C98.9866 230.77 90.7501 237.247 90.7501 237.247Z" fill="black"/>
<path d="M127.536 105.975L128.125 105.889C130.301 105.557 138.2 104.317 145.286 102.781C147.012 102.404 148.684 102.013 150.231 101.608C155.658 100.189 159.299 98.6574 156.975 97.3997C153.9 95.7332 152.281 92.7058 151.427 90.1006C151.346 89.8445 151.27 89.5975 151.198 89.3504C150.82 88.0315 150.584 86.6765 150.492 85.3078C150.492 85.3078 130.71 78.3051 134.549 85.3078C136.442 88.744 135.17 91.5469 133.385 93.5098C132.158 94.8075 130.714 95.8821 129.118 96.6855L127.536 105.975Z" fill="#EFB7B9"/>
<path opacity="0.1" d="M148.734 100.548C148.734 100.548 141.653 105.624 134.419 101.424C127.185 97.2245 117.726 138.531 117.726 138.531L107.915 162.683C107.915 162.683 101.563 167.934 109.471 170.211C117.379 172.489 134.922 167.934 139.378 174.586C143.833 181.239 152.268 182.285 153.131 182.285C153.994 182.285 157.33 157.253 157.33 157.253L158.198 121.022L148.734 100.548Z" fill="black"/>
<path d="M109.804 168.81C117.712 171.083 135.26 166.533 139.715 173.185C141.592 175.895 144.214 178.006 147.264 179.262C149.233 180.146 151.333 180.701 153.482 180.906C153.594 180.906 153.76 180.457 153.954 179.653C155.186 174.586 157.681 155.874 157.681 155.874L158.544 119.643L150.222 101.608L149.085 99.147C147.969 99.8902 146.76 100.481 145.488 100.903C142.75 101.829 138.789 102.35 134.779 100.005C132.656 98.7742 130.341 101.46 128.134 105.871C122.81 116.49 118.085 137.111 118.085 137.111L108.266 161.295C108.033 161.495 107.811 161.708 107.601 161.933C106.207 163.388 103.595 167.022 109.804 168.81Z" fill="#F3F5F9"/>
<path opacity="0.1" d="M147.498 170.027C147.11 173.084 147.032 176.172 147.264 179.244C147.547 183.616 148.097 187.966 148.909 192.27C148.96 192.541 149.032 192.807 149.125 193.066C153.401 191.192 156.795 189.822 156.795 189.822L153.954 179.644C155.186 174.577 157.681 155.865 157.681 155.865L158.544 119.634L150.222 101.608C155.649 100.189 159.29 98.6574 156.966 97.3997C153.594 95.5715 151.971 92.1039 151.189 89.3504C149.763 91.3357 148.094 93.1344 146.221 94.7046L146.113 94.7945L145.483 100.903L145.29 102.781L144.885 106.675C144.885 106.675 146.814 152.707 148.212 155.335C149.611 157.962 148.914 163.034 147.691 168.985C147.614 169.322 147.569 169.668 147.498 170.027Z" fill="black"/>
<path d="M148.383 168.284C147.16 174.236 148.208 184.037 149.611 191.561C151.013 199.085 165.904 194.189 168.709 191.561C171.515 188.933 179.742 187.711 179.742 187.711C179.742 187.711 180.093 153.408 182.723 149.033C183.968 146.957 184.27 140.184 184.238 133.639C184.216 127.764 183.923 122.073 183.815 120.164C183.789 119.715 183.775 119.468 183.775 119.468C183.775 119.468 195.159 100.216 194.983 98.8056C194.808 97.3952 191.481 97.2335 191.481 97.2335C191.481 97.2335 178.892 87.4324 176.766 88.6542C174.639 89.876 168.88 86.7317 168.88 86.7317C168.88 86.7317 161.556 87.5627 160.041 86.1478C159.949 86.0693 159.877 85.9703 159.83 85.8587C159.783 85.7472 159.763 85.6262 159.771 85.5055C159.942 83.2596 152.308 78.4803 152.07 78.3186C158.508 84.104 148.1 93.0202 146.918 93.9994L146.81 94.0893L145.582 105.97C145.582 105.97 147.511 152.002 148.909 154.629C150.307 157.257 149.611 162.333 148.383 168.284Z" fill="#0F5AD1"/>
<path d="M149.062 119.158C149.546 119.158 149.939 118.766 149.939 118.282C149.939 117.798 149.546 117.406 149.062 117.406C148.578 117.406 148.185 117.798 148.185 118.282C148.185 118.766 148.578 119.158 149.062 119.158Z" fill="#444053"/>
<path opacity="0.1" d="M147.268 94.7046L152.591 99.8477L160.392 86.8216C160.3 86.7431 160.227 86.6441 160.18 86.5325C160.133 86.4209 160.114 86.2999 160.122 86.1792C160.293 83.9333 152.654 79.1541 152.421 78.9924C158.859 84.8092 148.469 93.7254 147.268 94.7046Z" fill="black"/>
<path opacity="0.1" d="M150.815 147.16C151.3 147.16 151.692 146.767 151.692 146.284C151.692 145.8 151.3 145.408 150.815 145.408C150.331 145.408 149.939 145.8 149.939 146.284C149.939 146.767 150.331 147.16 150.815 147.16Z" fill="black"/>
<path d="M150.815 146.809C151.3 146.809 151.692 146.417 151.692 145.933C151.692 145.45 151.3 145.057 150.815 145.057C150.331 145.057 149.939 145.45 149.939 145.933C149.939 146.417 150.331 146.809 150.815 146.809Z" fill="#444053"/>
<path d="M146.918 94.0039L152.241 99.147L160.041 86.1208C159.949 86.0424 159.877 85.9433 159.83 85.8318C159.783 85.7202 159.763 85.5992 159.771 85.4785C159.942 83.2326 152.308 78.4534 152.07 78.2917C158.508 84.1085 148.1 93.0202 146.918 94.0039Z" fill="#518CE9"/>
<path d="M142.162 143.016L152.824 143.26C153.246 143.269 153.596 142.935 153.605 142.514L154.159 118.309C154.169 117.888 153.835 117.538 153.413 117.529L142.751 117.285C142.329 117.275 141.979 117.609 141.97 118.031L141.416 142.235C141.406 142.657 141.74 143.007 142.162 143.016Z" fill="#D1D9EC"/>
<path d="M142.225 143.585L152.886 143.829C153.308 143.838 153.658 143.504 153.668 143.083L154.222 118.879C154.231 118.457 153.897 118.107 153.475 118.098L142.814 117.854C142.392 117.844 142.042 118.178 142.032 118.6L141.478 142.804C141.468 143.226 141.803 143.576 142.225 143.585Z" fill="#76A5F0"/>
<path d="M148.167 127.427C149.225 127.427 150.083 126.571 150.083 125.514C150.083 124.457 149.225 123.6 148.167 123.6C147.11 123.6 146.252 124.457 146.252 125.514C146.252 126.571 147.11 127.427 148.167 127.427Z" fill="white"/>
<path opacity="0.1" d="M82.1628 166.708C86.5419 168.635 115.275 163.564 119.479 162.333C123.683 161.102 129.82 151.656 126.839 144.815C123.858 137.974 127.886 131.34 127.886 131.34C127.886 131.34 134.181 117.864 135.597 115.237C137.013 112.609 139.922 104.968 140.327 103.688C140.343 103.544 140.329 103.399 140.287 103.26C140.244 103.122 140.174 102.994 140.079 102.884C138.937 101.164 134.531 98.1004 134.531 98.1004C133.295 98.5496 133.142 95.0056 133.183 92.4048C133.209 90.9495 133.295 89.7906 133.295 89.7906C133.295 89.7906 132.715 90.3791 131.766 91.1831C131.42 91.475 131.024 91.7985 130.584 92.1308C128.941 93.4458 127.082 94.4656 125.09 95.1448C120.886 96.389 114.929 102.125 114.929 102.125L116.682 129.004C116.682 129.004 112.636 154.284 108.446 159.184C104.256 164.085 91.6268 163.909 87.4231 163.909C83.2194 163.909 82.1628 166.708 82.1628 166.708Z" fill="black"/>
<path d="M81.8122 165.661C86.1912 167.584 114.925 162.517 119.128 161.282C123.332 160.047 129.469 150.605 126.488 143.764C123.507 136.923 127.536 130.288 127.536 130.288C127.536 130.288 133.83 116.813 135.246 114.185C136.662 111.558 139.571 103.917 139.976 102.637C139.992 102.493 139.978 102.348 139.936 102.209C139.893 102.071 139.823 101.943 139.729 101.833C138.578 100.117 134.194 97.0628 134.194 97.0628C132.958 97.512 132.805 93.9725 132.845 91.3717C132.872 89.9119 132.958 88.753 132.958 88.753C132.958 88.753 132.378 89.3415 131.429 90.15C131.083 90.4374 130.687 90.7609 130.247 91.0932C128.596 92.4109 126.727 93.4308 124.726 94.1072C120.522 95.3514 114.565 101.087 114.565 101.087L116.318 127.966C116.318 127.966 112.272 153.246 108.082 158.146C103.892 163.047 91.2671 162.872 87.0589 162.872C82.8507 162.872 81.8122 165.661 81.8122 165.661Z" fill="#0F5AD1"/>
<path opacity="0.1" d="M129.464 89.4268C129.464 89.4268 129.631 90.3476 129.914 91.767C130.858 96.5732 133.106 107.066 134.729 106.662C135.894 106.37 137.876 104.313 139.387 102.534C138.249 100.8 133.852 97.7366 133.852 97.7366C132.616 98.1858 132.463 94.6462 132.504 92.0455L131.087 90.8237L129.464 89.4268Z" fill="black"/>
<path d="M129.815 88.7395C129.815 88.7395 129.981 89.6604 130.265 91.0798C131.209 95.886 133.457 106.379 135.08 105.974C136.244 105.683 138.227 103.625 139.738 101.847C138.578 100.117 134.194 97.0628 134.194 97.0628C132.958 97.512 132.805 93.9725 132.845 91.3717L131.429 90.15L129.815 88.7395Z" fill="#518CE9"/>
<path d="M118.602 140.278C118.602 140.278 127.365 138.531 129.815 134.681C132.265 130.832 148.954 127.495 146.9 131.537C144.845 135.58 129.815 148.736 129.815 148.736L123.291 158.066L114.578 155.856L110.905 148.718L118.602 140.278Z" fill="#EFB7B9"/>
<path opacity="0.1" d="M139.328 150.268C139.328 150.268 130.845 153.412 129.568 157.616C128.291 161.821 139.328 150.268 139.328 150.268Z" fill="black"/>
<path opacity="0.1" d="M144.53 155.159C144.53 155.159 145.303 159.53 134.671 159.202L144.53 155.159Z" fill="black"/>
<path opacity="0.1" d="M190.429 99.147L194.286 98.7966C194.286 98.7966 198.49 101.941 201.642 101.941C204.793 101.941 206.722 105.983 206.722 105.983C206.722 105.983 211.978 108.436 213.731 108.786C215.485 109.137 218.461 110.884 217.584 111.585C216.708 112.285 217.76 113.862 219.338 115.084C220.916 116.306 223.384 122.612 221.262 123.488C219.14 124.364 213.381 126.111 211.821 126.987C210.26 127.863 208.318 126.987 208.318 126.987C208.318 126.987 199.039 114.909 194.304 117.186C189.57 119.463 183.087 119.45 183.087 119.45L178.007 108.777L190.429 99.147Z" fill="black"/>
<path d="M109.804 156.741C110.631 157.971 111.701 158.834 113.072 159.009C116.501 159.409 119.976 159.088 123.273 158.066C123.273 158.066 105.627 152.464 122.617 138.845H118.076L116.548 138.27L117.24 134.646L118.238 101.95L114.56 101.074C114.56 101.074 111.598 122.603 110.892 125.226C110.186 127.849 109.655 138.005 109.655 138.005C109.655 138.005 108.954 142.205 107.902 144.294C107.106 145.884 107.326 153.003 109.804 156.741Z" fill="#518CE9"/>
<path opacity="0.1" d="M110.519 156.741C111.341 157.971 112.416 158.834 113.787 159.009C117.216 159.409 120.691 159.088 123.988 158.066C123.988 158.066 106.342 152.464 123.332 138.836H118.796L117.28 138.261C114.749 142.686 110.838 150.542 110.519 156.741Z" fill="black"/>
<path d="M109.804 156.741C110.631 157.971 111.701 158.834 113.072 159.009C116.501 159.409 119.976 159.088 123.273 158.066C123.273 158.066 105.627 152.464 122.617 138.845H118.076L116.548 138.27C114.066 142.686 110.136 150.542 109.804 156.741Z" fill="#518CE9"/>
<path opacity="0.1" d="M133.38 93.5233C136.374 94.8803 139.714 95.2798 142.944 94.6671C146.174 94.0544 149.135 92.4594 151.422 90.1006C151.342 89.8445 151.265 89.5975 151.193 89.3504C150.816 88.0315 150.579 86.6765 150.487 85.3078C150.487 85.3078 130.705 78.3051 134.545 85.3078C136.438 88.7575 135.165 91.5604 133.38 93.5233Z" fill="black"/>
<path d="M124.033 78.3186V78.4758C124.033 78.9924 124.069 79.5044 124.123 80.0075C124.177 80.5106 124.249 80.9688 124.339 81.4404C125.027 84.8723 126.826 87.9825 129.46 90.2905C132.093 92.5986 135.414 93.9761 138.909 94.2102C142.405 94.4443 145.88 93.522 148.798 91.5858C151.716 89.6495 153.915 86.8071 155.055 83.4976C155.163 83.1877 155.257 82.8778 155.343 82.5633C155.727 81.1812 155.921 79.7531 155.918 78.3186C155.918 77.9548 155.918 77.5865 155.878 77.2271C155.584 73.115 153.706 69.2769 150.639 66.5195C147.571 63.7622 143.553 62.3006 139.429 62.442C135.305 62.5833 131.397 64.3166 128.526 67.2775C125.654 70.2384 124.044 74.1961 124.033 78.3186V78.3186Z" fill="#EFB7B9"/>
<path opacity="0.1" d="M124.033 78.4758C124.121 78.9814 124.151 79.4952 124.123 80.0075C124.118 80.2853 124.133 80.563 124.168 80.8385C124.198 81.0458 124.256 81.2483 124.339 81.4404C124.982 82.9497 127.086 83.9289 128.475 82.9541C129.01 82.5163 129.435 81.9594 129.716 81.3281C131.191 78.5926 133.236 75.4484 136.46 75.3945C137.836 75.3675 139.126 75.947 140.457 76.2928C141.788 76.6387 143.361 76.6701 144.35 75.7673C145.115 75.0711 145.474 73.8852 146.495 73.6427C147.515 73.4001 148.46 74.3344 148.927 75.2507C149.395 76.1671 149.768 77.2451 150.726 77.7212C151.148 77.9278 151.625 77.9907 152.074 78.2153C153.981 79.2574 153.104 82.9092 155.082 83.5021C155.144 83.5213 155.207 83.5364 155.271 83.5471C155.302 83.2237 155.338 82.8913 155.37 82.5678C155.55 80.7891 155.728 79.0104 155.905 77.2316C155.611 73.1195 153.733 69.2814 150.666 66.524C147.598 63.7667 143.58 62.3051 139.456 62.4465C135.332 62.5878 131.424 64.3211 128.553 67.282C125.681 70.2429 124.071 74.2006 124.06 78.3231L124.033 78.4758Z" fill="black"/>
<path d="M152.353 54.5436C154.228 55.3387 156.179 56.5604 156.597 58.4695C156.782 59.3094 156.642 60.1808 156.687 61.0343C156.777 62.7591 157.586 64.3582 158.121 66.0111C158.656 67.6641 158.836 69.6046 157.784 70.997C157.456 71.4462 157.02 71.801 156.723 72.2592C156.336 72.9813 156.127 73.785 156.112 74.6039L155.244 83.2191C153.023 82.8014 154.012 78.952 152.043 77.8829C151.634 77.6583 151.144 77.5954 150.717 77.3843C149.768 76.9352 149.399 75.8347 148.918 74.9183C148.437 74.002 147.524 73.0632 146.486 73.3103C145.447 73.5573 145.106 74.7432 144.346 75.4349C143.352 76.3333 141.774 76.2973 140.448 75.9604C139.122 75.6236 137.827 75.0621 136.456 75.0621C133.227 75.116 131.177 78.2602 129.712 80.9957C129.43 81.6288 129.003 82.1872 128.466 82.6262C126.902 83.7222 124.42 82.3388 124.164 80.5061C124.011 79.4775 124.335 78.3321 123.741 77.4607C123.148 76.5893 121.862 76.4051 120.859 75.938C118.297 74.7611 117.505 71.5675 117.928 68.8904C118.238 66.9589 119.007 64.9735 118.377 63.114C118.157 62.4716 117.784 61.8877 117.582 61.2454C117.02 59.4487 117.937 57.4543 119.38 56.1742C120.823 54.894 122.716 54.1888 124.577 53.5689C129.356 51.9654 134.374 50.4247 139.459 50.0923C141.684 49.9485 144.602 49.2523 146.369 50.6403C148.469 52.2483 149.763 53.4476 152.353 54.5436Z" fill="#A4986E"/>
<path opacity="0.1" d="M148.185 105.328C148.67 105.328 149.062 104.936 149.062 104.452C149.062 103.968 148.67 103.576 148.185 103.576C147.701 103.576 147.309 103.968 147.309 104.452C147.309 104.936 147.701 105.328 148.185 105.328Z" fill="black"/>
<path d="M148.185 104.977C148.67 104.977 149.062 104.585 149.062 104.101C149.062 103.618 148.67 103.226 148.185 103.226C147.701 103.226 147.309 103.618 147.309 104.101C147.309 104.585 147.701 104.977 148.185 104.977Z" fill="#444053"/>
<path opacity="0.1" d="M153.792 160.289C154.276 160.289 154.668 159.897 154.668 159.413C154.668 158.929 154.276 158.537 153.792 158.537C153.308 158.537 152.915 158.929 152.915 159.413C152.915 159.897 153.308 160.289 153.792 160.289Z" fill="black"/>
<path d="M153.792 159.939C154.276 159.939 154.668 159.547 154.668 159.063C154.668 158.579 154.276 158.187 153.792 158.187C153.308 158.187 152.915 158.579 152.915 159.063C152.915 159.547 153.308 159.939 153.792 159.939Z" fill="#444053"/>
<path opacity="0.1" d="M150.815 174.815C151.3 174.815 151.692 174.423 151.692 173.94C151.692 173.456 151.3 173.064 150.815 173.064C150.331 173.064 149.939 173.456 149.939 173.94C149.939 174.423 150.331 174.815 150.815 174.815Z" fill="black"/>
<path d="M150.815 174.465C151.3 174.465 151.692 174.073 151.692 173.589C151.692 173.105 151.3 172.713 150.815 172.713C150.331 172.713 149.939 173.105 149.939 173.589C149.939 174.073 150.331 174.465 150.815 174.465Z" fill="#444053"/>
<path opacity="0.1" d="M120.706 118.282C120.706 118.282 118.778 131.353 120.706 133.63C122.635 135.908 120.706 118.282 120.706 118.282Z" fill="black"/>
<path opacity="0.1" d="M177.993 142.556C177.993 142.556 181.671 150.475 177.993 158.066C174.316 165.657 172.036 168.743 173.264 173.589C174.491 178.436 177.993 142.556 177.993 142.556Z" fill="black"/>
<path opacity="0.1" d="M4.02834 287.829C9.45941 291.503 17.6959 289.751 17.6959 289.751C17.6959 289.751 30.1316 283.804 33.8138 283.804C37.4959 283.804 46.4113 280.125 46.4113 280.125L46.1101 277.65C42.4819 278.346 34.2274 280.013 33.2743 280.826C32.0469 281.877 16.9811 286.953 16.9811 286.953C16.9811 286.953 6.72139 285.673 3.86649 281.459C1.99169 283.409 1.18692 285.906 4.02834 287.829Z" fill="#518CE9"/>
<g opacity="0.1">
<path opacity="0.1" d="M156.687 59.6328C156.687 59.4442 156.687 59.2555 156.687 59.0624C156.687 59.2825 156.687 59.5116 156.687 59.7182C156.696 59.6912 156.687 59.6643 156.687 59.6328Z" fill="black"/>
<path opacity="0.1" d="M120.864 74.5231C121.866 74.9723 123.112 75.1519 123.746 76.0413C124.38 76.9307 124.015 78.0581 124.168 79.0867C124.433 80.9194 126.906 82.3073 128.471 81.2068C129.008 80.7678 129.434 80.2094 129.716 79.5763C131.186 76.8408 133.236 73.6966 136.46 73.6427C137.836 73.6202 139.126 74.1997 140.457 74.541C141.788 74.8824 143.361 74.9184 144.355 74.0155C145.115 73.3238 145.474 72.1335 146.495 71.8909C147.515 71.6483 148.455 72.5826 148.927 73.499C149.399 74.4153 149.768 75.4933 150.726 75.9694C151.148 76.176 151.625 76.2389 152.052 76.4635C154.021 77.5371 153.032 81.4045 155.253 81.7998C155.553 78.925 155.842 76.0533 156.121 73.1845C156.139 72.3746 156.349 71.5805 156.732 70.8668C157.029 70.4176 157.465 70.0403 157.793 69.6001C158.19 69.0565 158.438 68.4185 158.512 67.7495C158.699 68.8855 158.441 70.0497 157.793 71.0015C157.465 71.4507 157.029 71.8056 156.732 72.2637C156.343 72.9837 156.13 73.7858 156.112 74.6039C155.812 77.4757 155.523 80.3474 155.244 83.2192C153.023 82.8014 154.012 78.952 152.043 77.8829C151.634 77.6583 151.144 77.5955 150.717 77.3843C149.768 76.9352 149.399 75.8347 148.918 74.9184C148.437 74.002 147.524 73.0632 146.486 73.3103C145.447 73.5573 145.106 74.7432 144.346 75.4349C143.352 76.3333 141.774 76.2973 140.448 75.9604C139.122 75.6236 137.827 75.0621 136.451 75.0621C133.227 75.116 131.177 78.2602 129.707 80.9957C129.425 81.6288 128.999 82.1872 128.462 82.6262C126.897 83.7222 124.415 82.3388 124.159 80.5061C124.006 79.4775 124.33 78.3321 123.737 77.4607C123.143 76.5893 121.857 76.4051 120.855 75.938C118.512 74.86 117.649 72.0975 117.847 69.5866C118.027 71.6394 118.953 73.6427 120.864 74.5231Z" fill="black"/>
<path opacity="0.1" d="M117.586 59.826C117.788 60.4683 118.162 61.0567 118.382 61.6946C118.614 62.4393 118.681 63.2255 118.58 63.9989C118.545 63.6934 118.478 63.3924 118.382 63.1005C118.162 62.4582 117.788 61.8742 117.586 61.2319C117.409 60.6391 117.373 60.0128 117.483 59.4038C117.509 59.5464 117.543 59.6874 117.586 59.826Z" fill="black"/>
</g>
<path d="M216.42 203.99L180.309 199.475C180.054 199.444 179.813 199.342 179.614 199.181C179.414 199.021 179.263 198.808 179.177 198.566C179.092 198.325 179.075 198.064 179.13 197.814C179.184 197.563 179.308 197.333 179.486 197.149L194.633 181.427C194.78 181.274 194.96 181.158 195.16 181.086C195.359 181.014 195.573 180.99 195.784 181.014L223.393 184.104C223.603 184.128 223.805 184.199 223.983 184.313C224.161 184.427 224.31 184.58 224.42 184.76C224.529 184.941 224.595 185.144 224.614 185.354C224.632 185.565 224.602 185.776 224.526 185.973L217.881 203.127C217.768 203.412 217.563 203.652 217.298 203.808C217.034 203.964 216.725 204.028 216.42 203.99Z" fill="#746D83"/>
<path opacity="0.1" d="M216.42 203.99L180.309 199.475C180.054 199.444 179.813 199.342 179.614 199.181C179.414 199.021 179.263 198.808 179.177 198.566C179.092 198.325 179.075 198.064 179.13 197.814C179.184 197.563 179.308 197.333 179.486 197.149L194.633 181.427C194.78 181.274 194.96 181.158 195.16 181.086C195.359 181.014 195.573 180.99 195.784 181.014L223.393 184.104C223.603 184.128 223.805 184.199 223.983 184.313C224.161 184.427 224.31 184.58 224.42 184.76C224.529 184.941 224.595 185.144 224.614 185.354C224.632 185.565 224.602 185.776 224.526 185.973L217.881 203.127C217.768 203.412 217.563 203.652 217.298 203.808C217.034 203.964 216.725 204.028 216.42 203.99Z" fill="black"/>
<path d="M216.011 203.585L179.904 199.053C179.65 199.021 179.409 198.918 179.209 198.757C179.01 198.596 178.859 198.383 178.774 198.141C178.688 197.899 178.672 197.638 178.726 197.388C178.78 197.137 178.903 196.907 179.081 196.722L194.228 181.001C194.375 180.848 194.556 180.731 194.755 180.659C194.955 180.586 195.168 180.56 195.379 180.583L222.984 183.673C223.194 183.697 223.397 183.768 223.575 183.882C223.754 183.996 223.904 184.15 224.013 184.33C224.123 184.511 224.19 184.715 224.209 184.926C224.228 185.137 224.198 185.349 224.121 185.546L217.472 202.7C217.362 202.989 217.158 203.234 216.894 203.394C216.629 203.554 216.318 203.622 216.011 203.585V203.585Z" fill="#746D83"/>
<path d="M194.493 187.159L205.337 188.03L220.803 187.024H220.538L206.21 185.641C202.928 184.437 205.203 177.349 205.203 177.349L194.228 177.906L193.351 177.951C189.471 187.024 194.493 187.159 194.493 187.159Z" fill="#518CE9"/>
<path opacity="0.1" d="M194.493 187.159L205.337 188.03L220.803 187.024H220.538L204.901 187.581L194.426 186.445C191.45 185.663 193.154 180.507 194.228 177.91L193.351 177.955C189.471 187.024 194.493 187.159 194.493 187.159Z" fill="black"/>
<path d="M175.498 122.733L178.816 170.279L179.266 176.518C179.31 177.207 179.618 177.852 180.125 178.321C180.632 178.789 181.299 179.046 181.99 179.038H182.997L232.947 178.737C233.142 178.735 233.334 178.692 233.511 178.612C233.689 178.531 233.848 178.415 233.978 178.27C234.108 178.125 234.207 177.955 234.268 177.77C234.329 177.585 234.35 177.39 234.332 177.196L233.882 170.953L230.366 129.143C230.311 128.598 230.101 128.08 229.761 127.65C229.421 127.22 228.965 126.897 228.446 126.718L180.839 119.585C179.221 119.023 177.571 119.221 176.541 120.079C176.162 120.401 175.868 120.812 175.686 121.275C175.504 121.738 175.439 122.239 175.498 122.733V122.733Z" fill="#02193D"/>
<path d="M178.816 170.279L179.266 176.518C179.31 177.207 179.618 177.852 180.125 178.321C180.632 178.789 181.299 179.046 181.99 179.038H182.997L232.947 178.737C233.142 178.735 233.334 178.692 233.511 178.612C233.689 178.531 233.848 178.415 233.978 178.27C234.108 178.125 234.207 177.955 234.268 177.77C234.329 177.585 234.35 177.39 234.332 177.196L233.882 170.953L178.816 170.279Z" fill="#DFE6F5"/>
<path d="M212.302 176.792C212.672 176.792 212.972 176.193 212.972 175.453C212.972 174.714 212.672 174.115 212.302 174.115C211.932 174.115 211.632 174.714 211.632 175.453C211.632 176.193 211.932 176.792 212.302 176.792Z" fill="#02193D"/>
<path d="M210.359 193.245C210.359 193.245 196.701 188.093 193.019 191.839C193.019 191.839 192.416 192.98 194.893 193.245L204.901 194.049C204.901 194.049 209.02 194.449 210.359 193.245Z" fill="#D1D9EC"/>
<path d="M209.995 191.907C207.298 190.811 199.236 187.976 194.066 191.112C194.066 191.112 199.785 190.478 202.928 192.293C206.07 194.108 210.359 193.245 210.359 193.245L210.422 193.133C210.482 193.026 210.519 192.907 210.53 192.785C210.541 192.663 210.526 192.54 210.485 192.424C210.445 192.308 210.38 192.202 210.296 192.113C210.211 192.023 210.109 191.953 209.995 191.907V191.907Z" fill="#DFE6F5"/>
<path d="M175.498 122.733L179.248 176.527C179.293 177.215 179.6 177.861 180.107 178.33C180.614 178.798 181.281 179.055 181.972 179.047H182.979C182.289 178.389 181.701 177.632 181.235 176.801C181.235 176.801 177.553 122.747 177.283 121.408C177.165 120.907 176.908 120.449 176.541 120.088C176.163 120.409 175.87 120.819 175.688 121.28C175.506 121.742 175.441 122.241 175.498 122.733V122.733Z" fill="#DFE6F5"/>
<path opacity="0.1" d="M175.498 122.733L179.248 176.527C179.293 177.215 179.6 177.861 180.107 178.33C180.614 178.798 181.281 179.055 181.972 179.047H182.979C182.289 178.389 181.701 177.632 181.235 176.801C181.235 176.801 177.553 122.747 177.283 121.408C177.165 120.907 176.908 120.449 176.541 120.088C176.163 120.409 175.87 120.819 175.688 121.28C175.506 121.742 175.441 122.241 175.498 122.733V122.733Z" fill="black"/>
<path opacity="0.1" d="M169.055 137.646C173.102 136.748 182.543 133.981 182.543 133.981L184.234 133.639C184.211 127.764 183.919 122.073 183.811 120.164H183.771C183.771 120.164 175.709 122.792 173.785 124.207C171.861 125.622 165.899 125.253 165.899 125.253C165.899 125.253 156.62 125.752 148.918 134.345C141.217 142.937 165.027 138.531 169.055 137.646Z" fill="black"/>
<path d="M208.435 122.028C208.795 122.193 209.108 122.446 209.343 122.764C209.579 123.081 209.73 123.454 209.783 123.846C209.835 124.238 209.788 124.637 209.644 125.006C209.5 125.374 209.265 125.701 208.961 125.954C206.826 127.719 203.71 129.83 200.734 130.127C195.788 130.625 183.829 133.019 182.642 133.271C182.578 133.282 182.515 133.297 182.453 133.316C181.469 133.603 172.854 136.123 169.055 136.954C165.009 137.853 141.181 142.214 148.909 133.639C156.004 125.743 164.434 124.656 165.733 124.552C165.836 124.544 165.94 124.544 166.043 124.552C166.942 124.593 172.032 124.768 173.79 123.497C174.705 122.923 175.675 122.44 176.685 122.055C180.494 120.48 184.468 119.335 188.532 118.641L196.773 117.204C197.242 117.123 197.725 117.186 198.157 117.384L208.435 122.028Z" fill="#EFB7B9"/>
<path d="M191.13 99.147L194.983 98.7966C194.983 98.7966 199.192 101.941 202.343 101.941C205.495 101.941 207.424 105.983 207.424 105.983C207.424 105.983 212.679 108.436 214.433 108.786C216.186 109.137 219.162 110.884 218.286 111.585C217.409 112.285 218.461 113.862 220.039 115.084C221.617 116.306 224.085 122.612 221.963 123.488C219.841 124.364 214.082 126.111 212.522 126.987C210.962 127.863 209.02 126.987 209.02 126.987C209.02 126.987 199.722 114.9 194.988 117.177C190.254 119.454 183.775 119.45 183.775 119.45L178.695 108.777L191.13 99.147Z" fill="#518CE9"/>
<path d="M421.82 319.244C421.389 319.834 421.045 320.483 420.8 321.171C420.732 321.337 420.674 321.53 420.611 321.715C420.497 321.662 420.378 321.62 420.256 321.589C419.732 321.457 419.189 321.411 418.651 321.454C418.651 321.243 418.651 321.027 418.682 320.794C418.745 318.427 418.466 315.13 416.209 316.527C414.038 317.874 415.584 320.12 416.983 321.557L417.342 321.912C416.07 322.811 415.827 324.935 415.611 327.141C415.396 329.346 413.525 331.758 412.284 333.128C412.159 333.272 412.042 333.393 411.934 333.51C411.433 333.112 410.854 332.823 410.234 332.663C409.615 332.503 408.968 332.474 408.337 332.58L408.171 331.974C407.164 328.34 405.073 322.047 402.407 320.668C402.519 320.529 402.636 320.385 402.758 320.219C403.891 318.741 405.163 316.54 403.279 315.979C401.395 315.417 401.229 317.888 401.332 319.734C401.332 319.967 401.35 320.187 401.386 320.394C401.009 320.411 400.639 320.505 400.3 320.67C399.96 320.836 399.658 321.069 399.413 321.355L399.125 321.009C397.596 319.213 394.791 316.351 393.946 318.512C393.154 320.524 395.623 323.138 397.358 324.652L397.466 324.747C396.297 329.467 401.386 333.317 404.124 335.001L404.475 335.217C400.698 339.664 398.37 348 398.37 348L408.944 349.887C408.944 349.887 415.953 343.841 415.058 338.163H415.13C422.135 336.762 423.731 329.297 422.639 324.868L422.764 324.814C424.039 324.291 425.156 323.446 426.006 322.361C427.944 319.644 423.83 316.571 421.82 319.244Z" fill="#6C63FF"/>
<path opacity="0.1" d="M421.82 319.244C421.389 319.834 421.045 320.483 420.8 321.171C420.732 321.337 420.674 321.53 420.611 321.715C420.497 321.662 420.378 321.62 420.256 321.589C419.732 321.457 419.189 321.411 418.651 321.454C418.651 321.243 418.651 321.027 418.682 320.794C418.745 318.427 418.466 315.13 416.209 316.527C414.038 317.874 415.584 320.12 416.983 321.557L417.342 321.912C416.07 322.811 415.827 324.935 415.611 327.141C415.396 329.346 413.525 331.758 412.284 333.128C412.159 333.272 412.042 333.393 411.934 333.51C411.433 333.112 410.854 332.823 410.234 332.663C409.615 332.503 408.968 332.474 408.337 332.58L408.171 331.974C407.164 328.34 405.073 322.047 402.407 320.668C402.519 320.529 402.636 320.385 402.758 320.219C403.891 318.741 405.163 316.54 403.279 315.979C401.395 315.417 401.229 317.888 401.332 319.734C401.332 319.967 401.35 320.187 401.386 320.394C401.009 320.411 400.639 320.505 400.3 320.67C399.96 320.836 399.658 321.069 399.413 321.355L399.125 321.009C397.596 319.213 394.791 316.351 393.946 318.512C393.154 320.524 395.623 323.138 397.358 324.652L397.466 324.747C396.297 329.467 401.386 333.317 404.124 335.001L404.475 335.217C400.698 339.664 398.37 348 398.37 348L408.944 349.887C408.944 349.887 415.953 343.841 415.058 338.163H415.13C422.135 336.762 423.731 329.297 422.639 324.868L422.764 324.814C424.039 324.291 425.156 323.446 426.006 322.361C427.944 319.644 423.83 316.571 421.82 319.244Z" fill="black"/>
<path d="M400.766 322.29L399.53 325.905C399.53 325.905 398.846 325.42 397.978 324.657C396.243 323.143 393.775 320.529 394.566 318.516C395.411 316.356 398.217 319.208 399.745 321.014C400.361 321.733 400.766 322.29 400.766 322.29Z" fill="#0F5AD1"/>
<path d="M403.387 320.223C403.009 320.721 402.604 321.198 402.173 321.652C402.065 321.021 401.991 320.386 401.953 319.747C401.849 317.901 402.043 315.44 403.9 315.992C405.756 316.545 404.511 318.746 403.387 320.223Z" fill="#0F5AD1"/>
<path d="M419.325 320.794C419.285 321.984 419.168 322.936 419.168 322.936C418.624 322.511 418.108 322.051 417.626 321.557C416.227 320.111 414.681 317.87 416.852 316.527C419.123 315.13 419.388 318.427 419.325 320.794Z" fill="#0F5AD1"/>
<path d="M426.626 322.352C425.777 323.437 424.66 324.282 423.385 324.805C423.031 324.961 422.668 325.093 422.297 325.2L420.84 323.156C420.993 322.481 421.194 321.818 421.443 321.171C421.688 320.483 422.032 319.834 422.463 319.244C424.477 316.572 428.591 319.644 426.626 322.352Z" fill="#0F5AD1"/>
<path opacity="0.1" d="M399.745 321.014C400.361 321.733 400.766 322.29 400.766 322.29L399.53 325.905C399.53 325.905 398.846 325.42 397.978 324.657C398.169 323.499 398.647 322.407 399.368 321.481C399.494 321.31 399.624 321.158 399.745 321.014Z" fill="black"/>
<path opacity="0.1" d="M403.387 320.223C403.009 320.721 402.604 321.198 402.173 321.652C402.065 321.021 401.991 320.386 401.953 319.747C402.469 319.754 402.97 319.92 403.387 320.223V320.223Z" fill="black"/>
<path d="M409.457 334.579L406.381 335.927C405.821 335.646 405.274 335.337 404.745 335.001C401.512 333.016 395.011 328.017 399.35 322.123C403.688 316.23 407.339 326.799 408.791 331.969C409.232 333.519 409.457 334.579 409.457 334.579Z" fill="#518CE9"/>
<path opacity="0.1" d="M417.626 321.557C418.075 321.098 418.682 320.825 419.325 320.794C419.285 321.984 419.168 322.936 419.168 322.936C418.624 322.511 418.109 322.051 417.626 321.557Z" fill="black"/>
<path opacity="0.1" d="M423.385 324.796C423.031 324.952 422.668 325.084 422.297 325.191L420.84 323.147C420.993 322.472 421.194 321.809 421.443 321.162C422.382 321.719 423.075 323.085 423.385 324.796Z" fill="black"/>
<path d="M415.751 338.154C415.58 338.19 415.409 338.222 415.234 338.249C404.925 339.812 411.835 334.256 411.835 334.256C411.835 334.256 412.284 333.829 412.927 333.128C414.168 331.781 416.043 329.36 416.254 327.141C416.578 323.803 416.956 320.672 420.899 321.589C424.77 322.496 425.507 336.205 415.751 338.154Z" fill="#518CE9"/>
<path d="M415.557 363.798H395.861V368.973H415.557V363.798Z" fill="#D4DFEC"/>
<path d="M418.466 346.981H392.732V365.038H418.466V346.981Z" fill="#D4DFEC"/>
<path opacity="0.1" d="M415.557 363.798H395.861V368.973H415.557V363.798Z" fill="black"/>
<path opacity="0.1" d="M418.466 346.981H392.732V365.038H418.466V346.981Z" fill="#B8797D"/>
<path d="M416.852 363.798H397.156V368.973H416.852V363.798Z" fill="#0F5AD1"/>
<path opacity="0.1" d="M408.782 331.983C409.232 333.528 409.448 334.588 409.448 334.588L406.372 335.936C405.812 335.655 405.265 335.346 404.736 335.01C405.95 333.479 407.307 332.329 408.782 331.983Z" fill="black"/>
<path opacity="0.1" d="M415.751 338.154C415.58 338.19 415.409 338.222 415.234 338.249C404.925 339.812 411.835 334.256 411.835 334.256C411.835 334.256 412.284 333.829 412.927 333.128C414.852 334.678 415.647 336.403 415.751 338.154Z" fill="black"/>
<path d="M398.99 348.005C398.99 348.005 404.763 327.343 412.855 333.721C420.948 340.099 409.564 349.892 409.564 349.892L398.99 348.005Z" fill="#0F5AD1"/>
<path opacity="0.1" d="M401.903 326.009C402.261 326.009 402.551 325.719 402.551 325.362C402.551 325.005 402.261 324.715 401.903 324.715C401.546 324.715 401.256 325.005 401.256 325.362C401.256 325.719 401.546 326.009 401.903 326.009Z" fill="black"/>
<path opacity="0.1" d="M401.849 329.027C402.207 329.027 402.497 328.738 402.497 328.38C402.497 328.023 402.207 327.734 401.849 327.734C401.492 327.734 401.202 328.023 401.202 328.38C401.202 328.738 401.492 329.027 401.849 329.027Z" fill="black"/>
<path opacity="0.1" d="M420.624 326.602C420.982 326.602 421.272 326.312 421.272 325.955C421.272 325.598 420.982 325.308 420.624 325.308C420.267 325.308 419.977 325.598 419.977 325.955C419.977 326.312 420.267 326.602 420.624 326.602Z" fill="black"/>
<path opacity="0.1" d="M405.518 342.076C405.876 342.076 406.165 341.786 406.165 341.429C406.165 341.072 405.876 340.782 405.518 340.782C405.16 340.782 404.871 341.072 404.871 341.429C404.871 341.786 405.16 342.076 405.518 342.076Z" fill="black"/>
<path opacity="0.1" d="M419.276 331.614C419.633 331.614 419.923 331.325 419.923 330.968C419.923 330.61 419.633 330.321 419.276 330.321C418.918 330.321 418.628 330.61 418.628 330.968C418.628 331.325 418.918 331.614 419.276 331.614Z" fill="black"/>
<path opacity="0.1" d="M412.586 338.303C412.943 338.303 413.233 338.013 413.233 337.656C413.233 337.299 412.943 337.009 412.586 337.009C412.228 337.009 411.938 337.299 411.938 337.656C411.938 338.013 412.228 338.303 412.586 338.303Z" fill="black"/>
<path opacity="0.1" d="M404.115 327.302C404.473 327.302 404.763 327.013 404.763 326.656C404.763 326.298 404.473 326.009 404.115 326.009C403.758 326.009 403.468 326.298 403.468 326.656C403.468 327.013 403.758 327.302 404.115 327.302Z" fill="black"/>
<path opacity="0.1" d="M418.844 328.542C419.202 328.542 419.491 328.252 419.491 327.895C419.491 327.538 419.202 327.248 418.844 327.248C418.486 327.248 418.197 327.538 418.197 327.895C418.197 328.252 418.486 328.542 418.844 328.542Z" fill="black"/>
<path opacity="0.1" d="M416.632 333.555C416.99 333.555 417.279 333.265 417.279 332.908C417.279 332.551 416.99 332.261 416.632 332.261C416.274 332.261 415.985 332.551 415.985 332.908C415.985 333.265 416.274 333.555 416.632 333.555Z" fill="black"/>
<path opacity="0.1" d="M409.834 341.591C410.192 341.591 410.482 341.301 410.482 340.944C410.482 340.587 410.192 340.297 409.834 340.297C409.477 340.297 409.187 340.587 409.187 340.944C409.187 341.301 409.477 341.591 409.834 341.591Z" fill="black"/>
<path opacity="0.1" d="M408.431 338.41C408.789 338.41 409.079 338.121 409.079 337.764C409.079 337.406 408.789 337.117 408.431 337.117C408.074 337.117 407.784 337.406 407.784 337.764C407.784 338.121 408.074 338.41 408.431 338.41Z" fill="black"/>
<path opacity="0.1" d="M405.086 331.237C405.444 331.237 405.734 330.948 405.734 330.59C405.734 330.233 405.444 329.943 405.086 329.943C404.729 329.943 404.439 330.233 404.439 330.59C404.439 330.948 404.729 331.237 405.086 331.237Z" fill="black"/>
<path opacity="0.1" d="M416.852 363.798H397.156V365.689H416.852V363.798Z" fill="black"/>
<path d="M419.761 346.981H394.027V365.038H419.761V346.981Z" fill="#B8797D"/>
<path opacity="0.1" d="M410.697 344.501C411.055 344.501 411.345 344.212 411.345 343.855C411.345 343.497 411.055 343.208 410.697 343.208C410.34 343.208 410.05 343.497 410.05 343.855C410.05 344.212 410.34 344.501 410.697 344.501Z" fill="black"/>
<path opacity="0.1" d="M406.813 345.31C407.17 345.31 407.46 345.02 407.46 344.663C407.46 344.306 407.17 344.016 406.813 344.016C406.455 344.016 406.165 344.306 406.165 344.663C406.165 345.02 406.455 345.31 406.813 345.31Z" fill="black"/>
</g>
<defs>
<linearGradient id="paint0_linear" x1="112.384" y1="290.977" x2="112.384" y2="48.7403" gradientUnits="userSpaceOnUse">
<stop stop-color="#808080" stop-opacity="0.25"/>
<stop offset="0.54" stop-color="#808080" stop-opacity="0.12"/>
<stop offset="1" stop-color="#808080" stop-opacity="0.1"/>
</linearGradient>
<clipPath id="clip0">
<rect width="448" height="372" fill="white"/>
</clipPath>
</defs>
</svg>
