<svg width="501" height="365" viewBox="0 0 501 365" fill="none" xmlns="http://www.w3.org/2000/svg">
<g clip-path="url(#clip0)">
<path d="M423.716 75.266L423.863 75.5185C410.387 92.3346 409.496 118.447 409.464 118.672L406.62 115.394C406.666 115.165 410.143 92.2014 423.716 75.266Z" fill="#444053"/>
<path d="M452.322 120.83C452.322 120.83 441.386 111.758 445.014 95.9108" stroke="#444053" stroke-miterlimit="10"/>
<path d="M430.133 116.395C430.133 116.395 422.843 101.131 429.329 91.1961" stroke="#444053" stroke-miterlimit="10"/>
<path d="M86.3095 340.917C86.3095 340.917 92.4229 336.886 98.4813 339.755C98.4813 339.755 96.6164 343.345 88.9459 343.006L86.3095 340.917Z" fill="#6C63FF"/>
<path d="M85.5608 341.132C85.5608 341.132 83.7006 348.23 88.3626 353.027C88.3626 353.027 91.169 350.107 88.3856 342.96L85.5608 341.132Z" fill="#6C63FF"/>
<path d="M77.9362 334.338C77.9362 334.338 78.3955 328.315 91.9912 330.312C91.9912 330.312 92.0555 334.196 87.2786 336.037C82.5018 337.878 80.32 336.326 77.9362 334.338Z" fill="#6C63FF"/>
<path d="M77.1002 334.297C77.1002 334.297 71.3496 336.133 76.4756 348.891C76.4756 348.891 80.2695 348.046 80.9401 342.973C81.6107 337.901 79.5943 336.142 77.1002 334.297Z" fill="#6C63FF"/>
<path d="M69.3976 325.735C69.3976 325.735 68.6213 315.828 82.5202 316.847C82.5202 316.847 83.5077 325.813 71.8549 328.118L69.3976 325.735Z" fill="#6C63FF"/>
<path d="M60.2159 314.57C60.2159 314.57 62.1175 303.346 76.0117 306.692C76.0117 306.692 76.0668 316.397 62.4803 317.251L60.2159 314.57Z" fill="#6C63FF"/>
<path d="M53.5007 303.011C53.5007 303.011 56.7159 292.048 70.4586 295.349C70.4586 295.349 67.1837 305.182 54.4148 305.03L53.5007 303.011Z" fill="#6C63FF"/>
<path d="M47.1255 291.717C47.1255 291.717 50.2442 280.369 63.5321 283.775C63.5321 283.775 59.0952 294.559 47.9982 293.65L47.1255 291.717Z" fill="#6C63FF"/>
<path d="M43.0146 280.989C43.0146 280.989 45.4123 267.111 57.8045 270.182C57.8045 270.182 54.2035 282.806 43.9287 283.008L43.0146 280.989Z" fill="#76A5F0"/>
<path d="M39.161 268.029C39.161 268.029 42.0409 254.041 54.5664 258.108C54.5664 258.108 49.6471 271.329 40.0337 269.961L39.161 268.029Z" fill="#0F5AD1"/>
<path d="M36.7772 255.955C36.7772 255.955 41.3427 241.962 51.0388 242.343C51.0388 242.343 46.3676 257.121 37.5855 258.76L36.7772 255.955Z" fill="#76A5F0"/>
<path d="M35.2614 244.198C35.2614 244.198 40.2312 227.354 48.1222 228.658C48.1222 228.658 44.6819 241.512 35.5416 246.824L35.2614 244.198Z" fill="#0F5AD1"/>
<path d="M34.3979 230.141C34.3979 230.141 39.06 216.107 46.8499 215.556C46.8499 215.556 43.6761 229.365 34.5725 233.795L34.3979 230.141Z" fill="#76A5F0"/>
<path d="M33.4563 217.053C33.4563 217.053 39.2712 203 44.4156 202.683C44.4156 202.683 41.8939 216.52 33.9708 219.357L33.4563 217.053Z" fill="#0F5AD1"/>
<path d="M32.8087 204.864C32.8087 204.864 36.3822 189.604 41.5357 188.337C41.5357 188.337 40.8329 200.815 33.3369 206.003L32.8087 204.864Z" fill="#76A5F0"/>
<path d="M30.8796 188.929C30.8796 188.929 34.6368 176.768 38.7981 174.914C38.7981 174.914 37.976 189.251 31.8441 191.9L30.8796 188.929Z" fill="#0F5AD1"/>
<path d="M29.2674 178.435L28.5096 156.991C28.5096 156.991 36.2811 173.178 29.8416 182.218L29.2674 178.435Z" fill="#76A5F0"/>
<path d="M23.2596 157.124C23.2596 157.124 17.656 141.465 16.3102 140.598C16.3102 140.598 27.3016 150.757 26.2268 163.827L23.2596 157.124Z" fill="#0F5AD1"/>
<path d="M69.0209 325.684C69.0209 325.684 59.1641 324.394 59.458 338.318C59.458 338.318 68.3687 339.769 71.2762 328.255L69.0209 325.684Z" fill="#6C63FF"/>
<path d="M59.7474 314.198C59.7474 314.198 48.3565 314.157 49.2843 328.43C49.2843 328.43 58.8426 330.138 61.998 316.907L59.7474 314.198Z" fill="#6C63FF"/>
<path d="M53.3905 303.933C53.3905 303.933 43.0514 299.108 36.4327 311.595C36.4327 311.595 45.9864 315.631 54.3045 305.953L53.3905 303.933Z" fill="#0F5AD1"/>
<path d="M46.8958 291.823C46.8958 291.823 36.3087 286.663 30.0896 298.888C30.0896 298.888 41.1131 302.68 47.7685 293.756L46.8958 291.823Z" fill="#76A5F0"/>
<path d="M43.1478 281.292C43.1478 281.292 32.9603 271.559 24.8259 281.402C24.8259 281.402 35.2385 289.408 43.6163 283.458L43.1478 281.292Z" fill="#0F5AD1"/>
<path d="M39.7397 267.698C39.7397 267.698 29.4879 257.745 21.4178 268.157C21.4178 268.157 32.9281 276.32 40.1026 269.787L39.7397 267.698Z" fill="#76A5F0"/>
<path d="M37.8382 255.569C37.8382 255.569 29.9426 243.174 20.6415 245.929C20.6415 245.929 28.8356 259.086 37.7509 258.498L37.8382 255.569Z" fill="#0F5AD1"/>
<path d="M35.4957 244.12C35.4957 244.12 27.5266 228.47 20.0077 231.188C20.0077 231.188 25.7445 243.215 35.6978 246.75L35.4957 244.12Z" fill="#76A5F0"/>
<path d="M34.9445 229.328C34.9445 229.328 26.7642 217.007 19.0982 218.512C19.0982 218.512 25.7858 231.004 35.7391 232.891L34.9445 229.328Z" fill="#0F5AD1"/>
<path d="M34.3199 216.777C34.3199 216.777 27.9813 202.954 22.837 202.835C22.837 202.835 25.8823 216.561 33.9065 219.1L34.3199 216.777Z" fill="#76A5F0"/>
<path d="M33.0659 204.561C33.0659 204.561 26.0155 190.564 20.7196 190.536C20.7196 190.536 24.3298 202.504 32.8271 205.796L33.0659 204.561Z" fill="#0F5AD1"/>
<path d="M32.0049 189.774C32.0049 189.774 26.732 178.187 22.3593 176.874C22.3593 176.874 24.9958 190.995 31.417 192.845L32.0049 189.774Z" fill="#76A5F0"/>
<path d="M28.6519 178.031L16.8614 160.095C16.8614 160.095 19.879 177.788 30.3606 181.451L28.6519 178.031Z" fill="#0F5AD1"/>
<path d="M20.5543 158.571C20.5543 158.571 6.86215 149.123 6.36609 147.612C6.36609 147.612 13.3522 160.848 26.2635 163.18L20.5543 158.571Z" fill="#76A5F0"/>
<path d="M19.7367 154.319C19.7367 154.319 4.01438 139.216 -0.0137939 139.23C-0.0137939 139.23 12.9526 139.822 20.0995 153.516L19.7367 154.319Z" fill="#518CE9"/>
<path d="M31.8671 192.014L31.293 192.088C28.3396 168.973 24.0312 155.316 19.1625 153.626L19.3554 153.08C24.5181 154.87 28.8265 168.335 31.8671 192.014Z" fill="#444053"/>
<path d="M36.1938 247.278L35.3303 247.352C35.1466 245.194 35.0088 242.986 34.9124 240.787C34.0902 221.653 32.8087 204.088 31.1276 190.917L31.6283 190.302C33.314 203.491 34.9537 221.593 35.7621 240.746C35.8769 242.935 36.0009 245.13 36.1938 247.278Z" fill="#444053"/>
<path d="M102.454 351.902C102.303 351.834 87.0719 345.039 71.2578 328.82C61.9983 319.327 54.3014 308.428 48.4529 296.528C41.1452 281.663 36.6899 263.387 35.1971 245.626L36.1158 246.048C39.4733 285.914 57.63 313.17 72.0708 327.994C87.7287 344.061 102.79 350.796 102.941 350.86L102.454 351.902Z" fill="#444053"/>
<path d="M459.607 61.1815V338.851C459.607 347.114 451.638 353.821 441.795 353.821H64.8687C55.0303 353.821 47.0612 347.105 47.0612 338.851V61.1815C47.0612 52.918 55.0303 44.4756 64.8687 44.4756L441.776 45.3937C451.615 45.3891 459.607 52.9089 459.607 61.1815Z" fill="#E3E7F8"/>
<path d="M459.607 61.2641V74.1183H47.0612V61.2641C47.0612 56.8115 48.8309 52.5413 51.9809 49.3928C55.131 46.2444 59.4034 44.4756 63.8583 44.4756H442.791C444.999 44.4738 447.184 44.9066 449.224 45.7495C451.264 46.5923 453.118 47.8286 454.679 49.3877C456.241 50.9468 457.48 52.7981 458.325 54.8359C459.171 56.8737 459.606 59.058 459.607 61.2641V61.2641Z" fill="#96ADD0"/>
<path opacity="0.8" d="M67.0459 65.226C70.3233 65.226 72.9802 62.5704 72.9802 59.2946C72.9802 56.0189 70.3233 53.3633 67.0459 53.3633C63.7685 53.3633 61.1116 56.0189 61.1116 59.2946C61.1116 62.5704 63.7685 65.226 67.0459 65.226Z" fill="#0F5AD1"/>
<path opacity="0.8" d="M84.3206 65.226C87.5981 65.226 90.255 62.5704 90.255 59.2946C90.255 56.0189 87.5981 53.3633 84.3206 53.3633C81.0432 53.3633 78.3863 56.0189 78.3863 59.2946C78.3863 62.5704 81.0432 65.226 84.3206 65.226Z" fill="#518CE9"/>
<path opacity="0.8" d="M101.591 65.226C104.868 65.226 107.525 62.5704 107.525 59.2946C107.525 56.0189 104.868 53.3633 101.591 53.3633C98.3133 53.3633 95.6565 56.0189 95.6565 59.2946C95.6565 62.5704 98.3133 65.226 101.591 65.226Z" fill="#88B2F3"/>
<path d="M402.307 300.063L402.817 308.184L403.979 315.098L405.279 318.312L406.441 335.835C406.441 335.835 417.635 337.129 420.358 335.812C420.553 335.728 420.723 335.595 420.85 335.426C424.12 330.45 423.064 316.094 423.064 316.094L424.318 306.816L423.482 301.996L421.461 301.785L419.904 301.615C419.904 301.615 419.555 302.046 419.049 302.717C417.671 304.553 415.141 308.106 415.311 309.603C415.54 311.646 415.03 313.735 414.24 314.061C413.45 314.387 412.803 314.942 412.66 314.382C412.467 313.913 412.419 313.396 412.523 312.899C412.66 312.109 411.921 309.686 411.921 309.686C411.921 309.686 410.667 306.858 410.759 305.65C410.851 304.443 410.621 303.052 410.249 302.726C409.877 302.4 409.367 302.074 409.79 300.591C410.212 299.108 407.952 296.216 407.952 296.216L402.307 300.063Z" fill="#E3E8F4"/>
<path d="M368.589 315.227C368.815 315.227 368.998 315.044 368.998 314.818C368.998 314.592 368.815 314.409 368.589 314.409C368.364 314.409 368.181 314.592 368.181 314.818C368.181 315.044 368.364 315.227 368.589 315.227Z" fill="#E6E8EC"/>
<path d="M392.616 327.796C392.989 327.796 393.291 327.494 393.291 327.121C393.291 326.749 392.989 326.447 392.616 326.447C392.243 326.447 391.941 326.749 391.941 327.121C391.941 327.494 392.243 327.796 392.616 327.796Z" fill="#E6E8EC"/>
<path d="M131.662 165.388H93.6631C93.4905 165.377 93.3176 165.402 93.155 165.461C92.9925 165.52 92.8437 165.612 92.7178 165.73C92.5919 165.849 92.4916 165.992 92.423 166.15C92.3545 166.309 92.3191 166.48 92.3191 166.653C92.3191 166.825 92.3545 166.996 92.423 167.155C92.4916 167.314 92.5919 167.457 92.7178 167.575C92.8437 167.694 92.9925 167.785 93.155 167.844C93.3176 167.903 93.4905 167.928 93.6631 167.917H131.662C131.835 167.928 132.008 167.903 132.17 167.844C132.333 167.785 132.481 167.694 132.607 167.575C132.733 167.457 132.834 167.314 132.902 167.155C132.971 166.996 133.006 166.825 133.006 166.653C133.006 166.48 132.971 166.309 132.902 166.15C132.834 165.992 132.733 165.849 132.607 165.73C132.481 165.612 132.333 165.52 132.17 165.461C132.008 165.402 131.835 165.377 131.662 165.388ZM131.662 169.726H93.6631C93.3269 169.726 93.0044 169.86 92.7667 170.097C92.5289 170.335 92.3954 170.657 92.3954 170.993C92.3954 171.329 92.5289 171.652 92.7667 171.889C93.0044 172.127 93.3269 172.26 93.6631 172.26H131.662C131.998 172.26 132.321 172.127 132.558 171.889C132.796 171.652 132.93 171.329 132.93 170.993C132.93 170.657 132.796 170.335 132.558 170.097C132.321 169.86 131.998 169.726 131.662 169.726ZM129.756 140.446H95.5738C94.732 140.447 93.9249 140.782 93.3293 141.376C92.7336 141.971 92.3978 142.777 92.3954 143.618V159.686C92.3978 160.527 92.7336 161.334 93.3293 161.928C93.9249 162.523 94.732 162.857 95.5738 162.858H129.756C130.597 162.856 131.403 162.521 131.997 161.926C132.592 161.332 132.927 160.527 132.93 159.686V143.618C132.927 142.778 132.592 141.972 131.997 141.378C131.403 140.783 130.597 140.448 129.756 140.446ZM99.8133 159.98H96.5567C96.2205 159.98 95.8981 159.846 95.6603 159.609C95.4226 159.371 95.289 159.049 95.289 158.713C95.289 158.377 95.4226 158.054 95.6603 157.817C95.8981 157.579 96.2205 157.446 96.5567 157.446H99.8133C100.149 157.446 100.472 157.579 100.71 157.817C100.947 158.054 101.081 158.377 101.081 158.713C101.081 159.049 100.947 159.371 100.71 159.609C100.472 159.846 100.149 159.98 99.8133 159.98ZM99.8133 145.872H96.5567C96.2205 145.872 95.8981 145.739 95.6603 145.501C95.4226 145.264 95.289 144.941 95.289 144.605C95.289 144.269 95.4226 143.947 95.6603 143.709C95.8981 143.472 96.2205 143.338 96.5567 143.338H99.8133C100.149 143.338 100.472 143.472 100.71 143.709C100.947 143.947 101.081 144.269 101.081 144.605C101.081 144.941 100.947 145.264 100.71 145.501C100.472 145.739 100.149 145.872 99.8133 145.872ZM112.674 158.892C111.242 158.892 109.843 158.468 108.652 157.673C107.462 156.878 106.534 155.748 105.986 154.426C105.438 153.103 105.295 151.649 105.574 150.245C105.854 148.842 106.543 147.553 107.555 146.541C108.568 145.529 109.858 144.84 111.262 144.561C112.666 144.282 114.121 144.425 115.444 144.972C116.767 145.52 117.897 146.447 118.693 147.637C119.488 148.827 119.913 150.226 119.913 151.657C119.91 153.576 119.146 155.417 117.787 156.773C116.428 158.13 114.586 158.892 112.665 158.892H112.674ZM128.782 159.98H125.526C125.189 159.98 124.867 159.846 124.629 159.609C124.391 159.371 124.258 159.049 124.258 158.713C124.258 158.377 124.391 158.054 124.629 157.817C124.867 157.579 125.189 157.446 125.526 157.446H128.782C129.118 157.446 129.441 157.579 129.679 157.817C129.916 158.054 130.05 158.377 130.05 158.713C130.05 159.049 129.916 159.371 129.679 159.609C129.441 159.846 129.118 159.98 128.782 159.98ZM128.782 145.872H125.526C125.189 145.872 124.867 145.739 124.629 145.501C124.391 145.264 124.258 144.941 124.258 144.605C124.258 144.269 124.391 143.947 124.629 143.709C124.867 143.472 125.189 143.338 125.526 143.338H128.782C129.118 143.338 129.441 143.472 129.679 143.709C129.916 143.947 130.05 144.269 130.05 144.605C130.05 144.941 129.916 145.264 129.679 145.501C129.441 145.739 129.118 145.872 128.782 145.872Z" fill="#0F5AD1"/>
<path d="M112.665 156.624C115.313 156.624 117.46 154.478 117.46 151.831C117.46 149.184 115.313 147.038 112.665 147.038C110.016 147.038 107.87 149.184 107.87 151.831C107.87 154.478 110.016 156.624 112.665 156.624Z" fill="white"/>
<path opacity="0.2" d="M357.864 108.471H185.305V204.226H357.864V108.471Z" fill="#76A5F0"/>
<path opacity="0.2" d="M357.864 225.647H185.305V321.401H357.864V225.647Z" fill="#0F5AD1"/>
<path d="M224.462 175.148H219.239V192.639H224.462V175.148Z" fill="white"/>
<path d="M234.406 153.493H229.183V192.639H234.406V153.493Z" fill="white"/>
<path d="M244.354 133.982H239.132V192.639H244.354V133.982Z" fill="#DFE3EF"/>
<path d="M254.303 120.063H249.081V192.639H254.303V120.063Z" fill="white"/>
<path d="M244.354 120.063H239.132V192.639H244.354V120.063Z" fill="#0F5AD1"/>
<path d="M264.247 152.745H259.025V192.639H264.247V152.745Z" fill="#0F5AD1"/>
<path opacity="0.2" d="M274.196 142.434H268.974V192.639H274.196V142.434Z" fill="#518CE9"/>
<path d="M284.14 126.775H278.918V192.639H284.14V126.775Z" fill="#0F5AD1"/>
<path opacity="0.2" d="M294.089 163.308H288.866V192.639H294.089V163.308Z" fill="#518CE9"/>
<path d="M304.038 149.765H298.815V192.639H304.038V149.765Z" fill="#0F5AD1"/>
<path opacity="0.2" d="M313.982 133.982H308.759V192.639H313.982V133.982Z" fill="#518CE9"/>
<path d="M132.916 261.946C132.914 261.18 132.608 260.445 132.066 259.904C131.524 259.362 130.789 259.056 130.022 259.054H95.2936C94.5265 259.056 93.7914 259.361 93.2485 259.903C92.7057 260.445 92.399 261.179 92.3954 261.946V266.289H132.916V261.946ZM92.3816 285.097C92.384 285.865 92.6901 286.6 93.2331 287.143C93.7762 287.686 94.5119 287.992 95.2799 287.994H130.022C130.79 287.992 131.525 287.686 132.067 287.143C132.61 286.6 132.915 285.864 132.916 285.097V270.645H92.3954L92.3816 285.097ZM105.242 280.759H120.083C120.255 280.749 120.428 280.774 120.591 280.832C120.753 280.891 120.902 280.983 121.028 281.101C121.154 281.22 121.254 281.363 121.323 281.521C121.391 281.68 121.427 281.851 121.427 282.024C121.427 282.197 121.391 282.368 121.323 282.526C121.254 282.685 121.154 282.828 121.028 282.946C120.902 283.065 120.753 283.156 120.591 283.215C120.428 283.274 120.255 283.299 120.083 283.288H105.242C104.92 283.269 104.617 283.127 104.396 282.892C104.174 282.657 104.051 282.347 104.051 282.024C104.051 281.701 104.174 281.39 104.396 281.155C104.617 280.92 104.92 280.778 105.242 280.759ZM98.7293 280.759H99.8133C99.9859 280.749 100.159 280.774 100.321 280.832C100.484 280.891 100.633 280.983 100.759 281.101C100.884 281.22 100.985 281.363 101.053 281.521C101.122 281.68 101.157 281.851 101.157 282.024C101.157 282.197 101.122 282.368 101.053 282.526C100.985 282.685 100.884 282.828 100.759 282.946C100.633 283.065 100.484 283.156 100.321 283.215C100.159 283.274 99.9859 283.299 99.8133 283.288H98.7293C98.5567 283.299 98.3838 283.274 98.2212 283.215C98.0587 283.156 97.9099 283.065 97.784 282.946C97.6581 282.828 97.5578 282.685 97.4892 282.526C97.4207 282.368 97.3853 282.197 97.3853 282.024C97.3853 281.851 97.4207 281.68 97.4892 281.521C97.5578 281.363 97.6581 281.22 97.784 281.101C97.9099 280.983 98.0587 280.891 98.2212 280.832C98.3838 280.774 98.5567 280.749 98.7293 280.759Z" fill="#518CE9"/>
<path d="M323.93 133.982H318.708V192.639H323.93V133.982Z" fill="#0F5AD1"/>
<path d="M224.462 292.319H219.239V309.81H224.462V292.319Z" fill="white"/>
<path d="M234.406 270.664H229.183V309.81H234.406V270.664Z" fill="white"/>
<path d="M244.354 251.153H239.132V309.81H244.354V251.153Z" fill="#DFE3EF"/>
<path d="M254.303 237.234H249.081V309.81H254.303V237.234Z" fill="white"/>
<path d="M244.354 237.234H239.132V309.81H244.354V237.234Z" fill="#0F5AD1"/>
<path d="M264.247 269.916H259.025V309.81H264.247V269.916Z" fill="#0F5AD1"/>
<path d="M274.196 259.605H268.974V309.81H274.196V259.605Z" fill="white"/>
<path d="M284.14 243.945H278.918V309.81H284.14V243.945Z" fill="white"/>
<path opacity="0.2" d="M294.089 280.479H288.866V309.81H294.089V280.479Z" fill="#518CE9"/>
<path opacity="0.2" d="M304.038 266.936H298.815V309.81H304.038V266.936Z" fill="#518CE9"/>
<path opacity="0.2" d="M313.982 251.153H308.759V309.81H313.982V251.153Z" fill="#518CE9"/>
<path opacity="0.2" d="M323.93 251.153H318.708V309.81H323.93V251.153Z" fill="#518CE9"/>
</g>
<defs>
<clipPath id="clip0">
<rect width="501" height="365" fill="white"/>
</clipPath>
</defs>
</svg>
