<svg width="703" height="325" viewBox="0 0 703 325" fill="none" xmlns="http://www.w3.org/2000/svg">
<g clip-path="url(#clip0)">
<path d="M63.0961 309.403L62.1499 309.048C61.9419 308.97 41.2463 301.044 31.5515 283.074C21.8564 265.102 26.6036 243.464 26.6527 243.248L26.8761 242.263L27.822 242.617C28.0299 242.696 48.7251 250.621 58.4203 268.592C68.1155 286.563 63.3682 308.201 63.3191 308.417L63.0961 309.403ZM33.1039 282.237C41.3005 297.431 57.6549 305.22 61.7986 306.998C62.5864 302.559 65.0571 284.608 56.8679 269.428C48.6795 254.251 32.3187 246.45 28.1733 244.667C27.385 249.109 24.9151 267.058 33.1039 282.237Z" fill="#0F5AD1"/>
<path d="M38.9605 276.77C56.3833 287.247 63.0933 308.058 63.0933 308.058C63.0933 308.058 41.5555 311.881 24.1328 301.404C6.71005 290.927 0 270.116 0 270.116C0 270.116 21.5378 266.293 38.9605 276.77Z" fill="#518CE9"/>
<path d="M596.547 4.00246H402.264V0H314.168V4.00246H119.084C117.358 4.00246 115.649 4.34223 114.055 5.00236C112.46 5.66249 111.011 6.63005 109.791 7.84981C108.571 9.06956 107.603 10.5176 106.942 12.1113C106.282 13.705 105.942 15.4131 105.942 17.1381V283.047C105.942 286.53 107.326 289.872 109.791 292.335C112.256 294.798 115.598 296.182 119.084 296.182H596.547C598.273 296.182 599.982 295.843 601.576 295.182C603.171 294.522 604.62 293.555 605.84 292.335C607.06 291.115 608.028 289.667 608.689 288.073C609.349 286.48 609.689 284.772 609.689 283.047V17.1381C609.689 15.4131 609.349 13.705 608.689 12.1113C608.028 10.5176 607.06 9.06955 605.84 7.8498C604.62 6.63004 603.171 5.66247 601.576 5.00235C599.982 4.34222 598.273 4.00246 596.547 4.00246Z" fill="#02193D"/>
<path d="M592.07 27.2168H123.561V291.379H592.07V27.2168Z" fill="#518CE9"/>
<path d="M357.415 20.0123C360.069 20.0123 362.22 17.862 362.22 15.2094C362.22 12.5568 360.069 10.4064 357.415 10.4064C354.761 10.4064 352.61 12.5568 352.61 15.2094C352.61 17.862 354.761 20.0123 357.415 20.0123Z" fill="#518CE9"/>
<path d="M565.174 60.8371H542.965V38.6391H565.174V60.8371ZM543.931 59.872H564.208V39.6042H543.931V59.872Z" fill="#76A5F0"/>
<path d="M622.844 286.576H577.12V283.284C577.12 283.198 577.103 283.113 577.071 283.034C577.038 282.955 576.99 282.883 576.929 282.822C576.868 282.761 576.796 282.713 576.717 282.68C576.638 282.648 576.553 282.631 576.467 282.631H560.79C560.705 282.631 560.62 282.648 560.541 282.68C560.461 282.713 560.389 282.761 560.329 282.822C560.268 282.883 560.22 282.955 560.187 283.034C560.154 283.113 560.137 283.198 560.137 283.284V286.576H550.339V283.284C550.339 283.198 550.323 283.113 550.29 283.034C550.257 282.955 550.209 282.883 550.148 282.822C550.087 282.761 550.015 282.713 549.936 282.68C549.857 282.648 549.772 282.631 549.686 282.631H534.01C533.924 282.631 533.839 282.648 533.76 282.68C533.68 282.713 533.608 282.761 533.548 282.822C533.487 282.883 533.439 282.955 533.406 283.034C533.373 283.113 533.356 283.198 533.356 283.284V286.576H523.559V283.284C523.559 283.198 523.542 283.113 523.509 283.034C523.476 282.955 523.428 282.883 523.367 282.822C523.307 282.761 523.235 282.713 523.155 282.68C523.076 282.648 522.991 282.631 522.905 282.631H507.229C507.143 282.631 507.058 282.648 506.979 282.68C506.9 282.713 506.828 282.761 506.767 282.822C506.706 282.883 506.658 282.955 506.625 283.034C506.592 283.113 506.576 283.198 506.576 283.284V286.576H496.778V283.284C496.778 283.198 496.761 283.113 496.728 283.034C496.695 282.955 496.647 282.883 496.586 282.822C496.526 282.761 496.454 282.713 496.374 282.68C496.295 282.648 496.21 282.631 496.125 282.631H480.448C480.362 282.631 480.277 282.648 480.198 282.68C480.119 282.713 480.047 282.761 479.986 282.822C479.925 282.883 479.877 282.955 479.844 283.034C479.812 283.113 479.795 283.198 479.795 283.284V286.576H469.997V283.284C469.997 283.198 469.98 283.113 469.947 283.034C469.914 282.955 469.866 282.883 469.806 282.822C469.745 282.761 469.673 282.713 469.594 282.68C469.514 282.648 469.429 282.631 469.344 282.631H453.667C453.581 282.631 453.496 282.648 453.417 282.68C453.338 282.713 453.266 282.761 453.205 282.822C453.145 282.883 453.096 282.955 453.064 283.034C453.031 283.113 453.014 283.198 453.014 283.284V286.576H443.216V283.284C443.216 283.198 443.199 283.113 443.166 283.034C443.133 282.955 443.085 282.883 443.025 282.822C442.964 282.761 442.892 282.713 442.813 282.68C442.734 282.648 442.649 282.631 442.563 282.631H426.886C426.8 282.631 426.715 282.648 426.636 282.68C426.557 282.713 426.485 282.761 426.424 282.822C426.364 282.883 426.316 282.955 426.283 283.034C426.25 283.113 426.233 283.198 426.233 283.284V286.576H416.435V283.284C416.435 283.198 416.418 283.113 416.385 283.034C416.353 282.955 416.304 282.883 416.244 282.822C416.183 282.761 416.111 282.713 416.032 282.68C415.953 282.648 415.868 282.631 415.782 282.631H292.982C292.896 282.631 292.811 282.648 292.732 282.68C292.653 282.713 292.581 282.761 292.52 282.822C292.459 282.883 292.411 282.955 292.378 283.034C292.346 283.113 292.329 283.198 292.329 283.284V286.576H282.531V283.284C282.531 283.198 282.514 283.113 282.481 283.034C282.448 282.955 282.4 282.883 282.34 282.822C282.279 282.761 282.207 282.713 282.128 282.68C282.048 282.648 281.963 282.631 281.878 282.631H266.201C266.115 282.631 266.03 282.648 265.951 282.68C265.872 282.713 265.8 282.761 265.739 282.822C265.679 282.883 265.63 282.955 265.598 283.034C265.565 283.113 265.548 283.198 265.548 283.284V286.576H255.75V283.284C255.75 283.198 255.733 283.113 255.7 283.034C255.667 282.955 255.619 282.883 255.559 282.822C255.498 282.761 255.426 282.713 255.347 282.68C255.268 282.648 255.183 282.631 255.097 282.631H239.42C239.334 282.631 239.249 282.648 239.17 282.68C239.091 282.713 239.019 282.761 238.958 282.822C238.898 282.883 238.85 282.955 238.817 283.034C238.784 283.113 238.767 283.198 238.767 283.284V286.576H228.969V283.284C228.969 283.198 228.952 283.113 228.919 283.034C228.887 282.955 228.838 282.883 228.778 282.822C228.717 282.761 228.645 282.713 228.566 282.68C228.487 282.648 228.402 282.631 228.316 282.631H212.639C212.554 282.631 212.469 282.648 212.389 282.68C212.31 282.713 212.238 282.761 212.177 282.822C212.117 282.883 212.069 282.955 212.036 283.034C212.003 283.113 211.986 283.198 211.986 283.284V286.576H202.188V283.284C202.188 283.198 202.171 283.113 202.139 283.034C202.106 282.955 202.058 282.883 201.997 282.822C201.936 282.761 201.864 282.713 201.785 282.68C201.706 282.648 201.621 282.631 201.535 282.631H185.858C185.773 282.631 185.688 282.648 185.609 282.68C185.529 282.713 185.457 282.761 185.397 282.822C185.336 282.883 185.288 282.955 185.255 283.034C185.222 283.113 185.205 283.198 185.205 283.284V286.576H175.407V283.284C175.407 283.198 175.391 283.113 175.358 283.034C175.325 282.955 175.277 282.883 175.216 282.822C175.155 282.761 175.083 282.713 175.004 282.68C174.925 282.648 174.84 282.631 174.754 282.631H159.078C158.992 282.631 158.907 282.648 158.828 282.68C158.748 282.713 158.676 282.761 158.616 282.822C158.555 282.883 158.507 282.955 158.474 283.034C158.441 283.113 158.424 283.198 158.424 283.284V286.576H148.627V283.284C148.627 283.198 148.61 283.113 148.577 283.034C148.544 282.955 148.496 282.883 148.435 282.822C148.375 282.761 148.303 282.713 148.223 282.68C148.144 282.648 148.059 282.631 147.973 282.631H132.297C132.211 282.631 132.126 282.648 132.047 282.68C131.968 282.713 131.896 282.761 131.835 282.822C131.774 282.883 131.726 282.955 131.693 283.034C131.66 283.113 131.644 283.198 131.644 283.284V286.576H101.597C97.4391 286.576 93.4517 288.227 90.5117 291.166C87.5718 294.104 85.9202 298.09 85.9202 302.246V309.331C85.9202 313.487 87.5718 317.472 90.5117 320.411C93.4517 323.349 97.4391 325 101.597 325H622.844C627.001 325 630.989 323.349 633.929 320.411C636.869 317.472 638.52 313.487 638.52 309.331V302.246C638.52 298.09 636.869 294.104 633.929 291.166C630.989 288.227 627.001 286.576 622.844 286.576Z" fill="#02193D"/>
<path d="M563.108 174.413H412.263V88.5764H563.108V174.413ZM413.757 172.92H561.615V90.0693H413.757V172.92Z" fill="#76A5F0"/>
<path d="M286.808 191.58H152.392V107.983H286.808V191.58ZM153.885 190.088H285.315V109.476H153.885V190.088Z" fill="#76A5F0"/>
<path d="M215.19 159.485L215.061 157.816C214.676 154.35 215.832 150.562 219.043 146.712C221.933 143.309 223.538 140.806 223.538 137.917C223.538 134.644 221.483 132.461 217.437 132.397C215.123 132.388 212.861 133.082 210.951 134.387L209.41 130.343C211.529 128.802 215.19 127.775 218.593 127.775C225.979 127.775 229.318 132.333 229.318 137.211C229.318 141.576 226.878 144.722 223.795 148.38C220.97 151.718 219.942 154.542 220.134 157.816L220.199 159.485L215.19 159.485ZM213.777 168.472C213.742 167.948 213.817 167.423 213.996 166.929C214.175 166.436 214.454 165.985 214.816 165.605C215.178 165.225 215.615 164.924 216.099 164.721C216.584 164.519 217.105 164.419 217.63 164.428C219.878 164.428 221.419 166.096 221.419 168.472C221.44 168.986 221.357 169.5 221.175 169.982C220.992 170.464 220.714 170.904 220.357 171.276C220 171.648 219.572 171.943 219.098 172.145C218.624 172.348 218.113 172.452 217.598 172.452C217.083 172.452 216.572 172.348 216.098 172.145C215.624 171.943 215.196 171.648 214.839 171.276C214.482 170.904 214.204 170.464 214.021 169.982C213.839 169.5 213.756 168.986 213.777 168.472Z" fill="#D0CDE1"/>
<path d="M483.276 140.825L483.147 139.156C482.762 135.69 483.918 131.902 487.129 128.051C490.019 124.649 491.624 122.146 491.624 119.257C491.624 115.984 489.569 113.801 485.523 113.737C483.209 113.728 480.947 114.422 479.037 115.727L477.495 111.683C479.615 110.142 483.276 109.115 486.679 109.115C494.064 109.115 497.404 113.673 497.404 118.551C497.404 122.916 494.963 126.061 491.881 129.72C489.055 133.058 488.028 135.882 488.22 139.156L488.284 140.825L483.276 140.825ZM481.863 149.812C481.828 149.288 481.903 148.763 482.081 148.269C482.26 147.776 482.54 147.325 482.902 146.945C483.264 146.565 483.701 146.264 484.185 146.061C484.669 145.859 485.191 145.759 485.716 145.768C487.964 145.768 489.505 147.436 489.505 149.812C489.526 150.326 489.443 150.84 489.261 151.322C489.078 151.804 488.8 152.244 488.443 152.616C488.086 152.987 487.658 153.283 487.184 153.485C486.709 153.687 486.199 153.792 485.684 153.792C485.168 153.792 484.658 153.687 484.184 153.485C483.71 153.283 483.281 152.987 482.924 152.616C482.567 152.244 482.289 151.804 482.107 151.322C481.925 150.84 481.841 150.326 481.863 149.812Z" fill="#0F5AD1"/>
<path d="M360.454 259.108C396.043 259.108 424.894 230.271 424.894 194.699C424.894 159.127 396.043 130.29 360.454 130.29C324.866 130.29 296.015 159.127 296.015 194.699C296.015 230.271 324.866 259.108 360.454 259.108Z" fill="#0F5AD1"/>
<path d="M335.566 282.901L316.302 279.415L322.55 239.211L341.814 242.697L335.566 282.901Z" fill="#2F2E41"/>
<path d="M380.341 249.668L361.077 246.182L354.829 280.679L374.093 284.165L380.341 249.668Z" fill="#2F2E41"/>
<path d="M386.968 286.044C387.637 282.734 381.019 278.606 372.188 276.824C363.356 275.042 355.655 276.281 354.986 279.591C354.317 282.901 360.935 287.029 369.767 288.811C378.598 290.593 386.3 289.355 386.968 286.044Z" fill="#0F5AD1"/>
<path d="M346.846 285.005C347.29 281.657 340.409 277.984 331.477 276.801C322.545 275.619 314.945 277.374 314.501 280.722C314.057 284.07 320.938 287.742 329.87 288.925C338.802 290.108 346.402 288.352 346.846 285.005Z" fill="#0F5AD1"/>
<path d="M364.966 200.957C377.129 200.957 386.989 191.102 386.989 178.944C386.989 166.787 377.129 156.931 364.966 156.931C352.802 156.931 342.942 166.787 342.942 178.944C342.942 191.102 352.802 200.957 364.966 200.957Z" fill="white"/>
<path d="M309.621 124.629C308.652 100.784 329.212 80.5866 355.545 79.5175C381.877 78.4484 404.009 96.912 404.978 120.757C405.947 144.602 387.643 150.02 361.31 151.089C334.978 152.158 310.59 148.474 309.621 124.629Z" fill="white"/>
<path d="M422.215 192.819C439.56 188.845 452.609 181.212 451.36 175.769C450.112 170.327 435.04 169.136 417.695 173.11C400.351 177.084 387.302 184.717 388.55 190.16C389.798 195.602 404.87 196.793 422.215 192.819Z" fill="#2F2E41"/>
<path d="M295.723 213.845C313.068 209.871 326.117 202.237 324.868 196.795C323.62 191.353 308.548 190.162 291.203 194.136C273.859 198.11 260.81 205.743 262.058 211.185C263.306 216.628 278.378 217.818 295.723 213.845Z" fill="#2F2E41"/>
<path d="M342.756 220.082C342.413 221.978 342.446 223.923 342.855 225.807C343.264 227.69 344.04 229.475 345.138 231.059C346.237 232.642 347.637 233.994 349.259 235.037C350.88 236.08 352.691 236.793 354.588 237.137C356.486 237.48 358.432 237.446 360.316 237.038C362.2 236.629 363.986 235.854 365.57 234.756C367.155 233.657 368.507 232.258 369.551 230.637C370.594 229.017 371.308 227.206 371.651 225.31C373.096 217.335 366.926 214.512 358.947 213.069C350.968 211.625 344.201 212.106 342.756 220.082Z" fill="white"/>
<path d="M221.355 9.79453H115.4V110.535H221.355V9.79453Z" fill="#DFE6F5"/>
<path d="M209.315 21.8292H127.44V84.4095H209.315V21.8292Z" fill="white"/>
<path d="M171.893 91.7925H127.359V94.1353H171.893V91.7925Z" fill="#F2F2F2"/>
<path d="M171.893 98.8209H127.359V101.164H171.893V98.8209Z" fill="#F2F2F2"/>
<path d="M142.009 62.5075C147.187 62.5075 151.384 58.3119 151.384 53.1363C151.384 47.9607 147.187 43.7651 142.009 43.7651C136.831 43.7651 132.633 47.9607 132.633 53.1363C132.633 58.3119 136.831 62.5075 142.009 62.5075Z" fill="#0F5AD1"/>
<path d="M168.377 62.5075C173.555 62.5075 177.753 58.3119 177.753 53.1363C177.753 47.9607 173.555 43.7651 168.377 43.7651C163.199 43.7651 159.002 47.9607 159.002 53.1363C159.002 58.3119 163.199 62.5075 168.377 62.5075Z" fill="#518CE9"/>
<path d="M194.746 62.5075C199.924 62.5075 204.122 58.3119 204.122 53.1363C204.122 47.9607 199.924 43.7651 194.746 43.7651C189.568 43.7651 185.371 47.9607 185.371 53.1363C185.371 58.3119 189.568 62.5075 194.746 62.5075Z" fill="#76A5F0"/>
<path d="M168.377 20.3371C170.966 20.3371 173.065 18.2393 173.065 15.6515C173.065 13.0637 170.966 10.9659 168.377 10.9659C165.788 10.9659 163.69 13.0637 163.69 15.6515C163.69 18.2393 165.788 20.3371 168.377 20.3371Z" fill="#0F5AD1"/>
<path d="M271.752 204.858H165.797V305.598H271.752V204.858Z" fill="#DFE6F5"/>
<path d="M259.711 216.892H177.837V279.473H259.711V216.892Z" fill="white"/>
<path d="M224.556 227.177H195.853V255.866H224.556V227.177Z" fill="#518CE9"/>
<path d="M206.841 234.351V269.188H241.695V234.351H206.841ZM240.183 267.677H208.353V235.862H240.183V267.677Z" fill="#0F5AD1"/>
<path d="M222.29 285.684H177.756V288.027H222.29V285.684Z" fill="#F2F2F2"/>
<path d="M218.774 215.4C221.363 215.4 223.462 213.302 223.462 210.715C223.462 208.127 221.363 206.029 218.774 206.029C216.185 206.029 214.086 208.127 214.086 210.715C214.086 213.302 216.185 215.4 218.774 215.4Z" fill="#3F3D56"/>
<path d="M547.614 174.698H441.659V275.439H547.614V174.698Z" fill="#DFE6F5"/>
<path d="M535.574 186.733H453.7V249.313H535.574V186.733Z" fill="white"/>
<path d="M503.444 235.724H485.83V240.941H503.444V235.724Z" fill="#0F5AD1"/>
<path d="M524.737 195.105H464.536V197.341H524.737V195.105Z" fill="#0F5AD1"/>
<path d="M524.737 202.185H464.536V204.421H524.737V202.185Z" fill="#518CE9"/>
<path d="M524.737 209.266H464.536V211.502H524.737V209.266Z" fill="#0F5AD1"/>
<path d="M524.737 216.346H464.536V218.582H524.737V216.346Z" fill="#518CE9"/>
<path d="M524.737 223.427H464.536V225.662H524.737V223.427Z" fill="#0F5AD1"/>
<path d="M498.153 255.525H453.619V257.868H498.153V255.525Z" fill="#F2F2F2"/>
<path d="M515.732 261.382H453.619V263.725H515.732V261.382Z" fill="#518CE9"/>
<path d="M494.637 185.241C497.226 185.241 499.325 183.143 499.325 180.555C499.325 177.967 497.226 175.87 494.637 175.87C492.048 175.87 489.949 177.967 489.949 180.555C489.949 183.143 492.048 185.241 494.637 185.241Z" fill="#518CE9"/>
<circle cx="372" cy="168" r="7" fill="black"/>
</g>
<defs>
<clipPath id="clip0">
<rect width="703" height="325" fill="white"/>
</clipPath>
</defs>
</svg>
